<svg xmlns="http://www.w3.org/2000/svg" xmlns:xlink="http://www.w3.org/1999/xlink" xmlns:lucid="lucid" width="1024" height="1360"><g transform="translate(0 3888)" lucid:page-tab-id="0_0"><g class="lucid-layer" lucid:layer-id="uJz9yqxo-90-" display="block"><path d="M446-3860v1280" fill="none"/><path d="M446-3860v4m0 8v8m0 8v8m0 8v8m0 8v8m0 8v8m0 8v8m0 8v8m0 8v8m0 8v8m0 8v8m0 8v8m0 8v8m0 8v8m0 8v8m0 8v8m0 8v8m0 8v8m0 8v8m0 8v8m0 8v8m0 8v8m0 8v8m0 8v8m0 8v8m0 8v8m0 8v8m0 8v8m0 8v8m0 8v8m0 8v8m0 8v8m0 8v8m0 8v8m0 8v8m0 8v8m0 8v8m0 8v8m0 8v8m0 8v8m0 8v8m0 8v8m0 8v8m0 8v8m0 8v8m0 8v8m0 8v8m0 8v8m0 8v8m0 8v8m0 8v8m0 8v8m0 8v8m0 8v8m0 8v8m0 8v8m0 8v8m0 8v8m0 8v8m0 8v8m0 8v8m0 8v8m0 8v8m0 8v8m0 8v8m0 8v8m0 8v8m0 8v8m0 8v8m0 8v8m0 8v8m0 8v8m0 8v8m0 8v8m0 8v8m0 8v8m0 8v8m0 8v8m0 8v8m0 8v8m0 8v4" stroke="#b2b2b2" stroke-width="2" fill="none"/><path d="M32-3860h40v40H32z" stroke="#000" stroke-opacity="0" stroke-width="2" fill="#fff" fill-opacity="0"/><use xlink:href="#a" transform="matrix(1,0,0,1,37,-3855) translate(-2.9750000000000014 18.6)"/><path d="M940-3860h40v40h-40z" stroke="#000" stroke-opacity="0" stroke-width="2" fill="#fff" fill-opacity="0"/><use xlink:href="#b" transform="matrix(1,0,0,1,945,-3855) translate(-4 18.6)"/></g><g class="lucid-layer" lucid:layer-id="zMz9j7YK_hOt" display="block"><path d="M465-3620h515v920H465z" stroke="#000" stroke-width="2" fill="#c7e8ac"/><path d="M480-3426h420v466H480z" stroke="#000" stroke-width="2" fill="#b2d6ef"/><path d="M496.5-3397h381v417h-381z" stroke="#000" stroke-width="2" fill="#f5b5c8"/><path d="M514-3139h346v139H514z" stroke="#000" stroke-width="2" fill="#ef8d22"/><path d="M580-3115h272v100H580z" stroke="#000" stroke-width="2" fill="#f5b5c8"/><path d="M72-3560h364v860H72z" stroke="#000" stroke-width="2" fill="#c7e8ac"/><path d="M132-3240h288v350H132z" stroke="#000" stroke-width="2" fill="#f5b5c8"/><path d="M514-3380h346v190H514z" stroke="#000" stroke-width="2" fill="#b391b5"/><path d="M622.94-3699v39H690v214.76" stroke="#000" stroke-width="2" fill="none"/><path d="M623.94-3699h-2v-1h2zM690-3430.24l-4.64-14.26h9.28z"/><path d="M690-3427l-6-18.5h12zm-3.26-16.5l3.26 10.03 3.26-10.03z"/><path d="M484-3520H373.24" stroke="#000" stroke-width="2" fill="none"/><path d="M485-3519h-1v-2h1zM372.5-3515.36l-14.26-4.64 14.26-4.64z"/><path d="M373.5-3514l-18.5-6 18.5-6zm-12.03-6l10.03 3.26v-6.52z"/><path d="M960-3518c0 4.42-26.86 8-60 8s-60-3.58-60-8v-64c0-4.42 26.86-8 60-8s60 3.58 60 8z" stroke="#000" stroke-width="2" fill="#fff"/><path d="M960-3582c0 4.42-26.86 8-60 8s-60-3.58-60-8" stroke="#000" stroke-width="2" fill="none"/><use xlink:href="#c" transform="matrix(1,0,0,1,845,-3569) translate(36.05 30.6)"/><path d="M194-3530h160v60H194z" stroke="#000" stroke-width="2" fill="#fff"/><use xlink:href="#d" transform="matrix(1,0,0,1,199,-3525) translate(35.574999999999996 28.6)"/><use xlink:href="#e" transform="matrix(1,0,0,1,199,-3525) translate(65.525 28.6)"/><path d="M485-3550h160v60H485z" stroke="#000" stroke-width="2" fill="#fff"/><use xlink:href="#d" transform="matrix(1,0,0,1,490,-3545) translate(35.574999999999996 28.6)"/><use xlink:href="#e" transform="matrix(1,0,0,1,490,-3545) translate(65.525 28.6)"/><path d="M839-3550h-96.5v30h-78.26" stroke="#000" stroke-width="2" fill="none"/><path d="M840-3549h-1v-2h1zM663.5-3515.36l-14.26-4.64 14.26-4.64z"/><path d="M664.5-3514l-18.5-6 18.5-6zm-12.03-6l10.03 3.26v-6.52z"/><path d="M186-3720h160v60H186z" stroke="#000" stroke-width="2" fill="#fff"/><use xlink:href="#f" transform="matrix(1,0,0,1,191,-3715) translate(66.025 28.6)"/><path d="M186-3640h160v60H186z" stroke="#000" stroke-width="2" fill="#fff"/><use xlink:href="#g" transform="matrix(1,0,0,1,191,-3635) translate(53.525 28.6)"/><path d="M486-3760h160v60H486z" stroke="#000" stroke-width="2" fill="#fff"/><use xlink:href="#h" transform="matrix(1,0,0,1,491,-3755) translate(29.549999999999997 17.799999999999997)"/><use xlink:href="#i" transform="matrix(1,0,0,1,491,-3755) translate(39.55 39.4)"/><path d="M347-3690h69v-40h50.76" stroke="#000" stroke-width="2" fill="none"/><path d="M347-3689h-1v-2h1zM481.76-3730l-14.26 4.64v-9.28z"/><path d="M485-3730l-18.5 6v-12zm-16.5 3.26l10.03-3.26-10.03-3.26z"/><path d="M347-3610h69v-120h50.76" stroke="#000" stroke-width="2" fill="none"/><path d="M347-3609h-1v-2h1zM481.76-3730l-14.26 4.64v-9.28z"/><path d="M485-3730l-18.5 6v-12zm-16.5 3.26l10.03-3.26-10.03-3.26z"/><path d="M436-3690c0 11.05-8.95 20-20 20s-20-8.95-20-20 8.95-20 20-20 20 8.95 20 20z" stroke="#000" stroke-width="2" fill="#ffeca9"/><use xlink:href="#j" transform="matrix(1,0,0,1,401,-3705) translate(10 18.6)"/><path d="M765-3540c0 11.05-8.95 20-20 20s-20-8.95-20-20 8.95-20 20-20 20 8.95 20 20z" stroke="#000" stroke-width="2" fill="#ffeca9"/><use xlink:href="#k" transform="matrix(1,0,0,1,730,-3555) translate(10 18.6)"/><path d="M566-3699v60.76" stroke="#000" stroke-width="2" fill="none"/><path d="M567-3699h-2v-1h2zM566-3623.24l-4.64-14.26h9.28z"/><path d="M566-3620l-6-18.5h12zm-3.26-16.5l3.26 10.03 3.26-10.03z"/><path d="M186-3820h160v60H186z" stroke="#000" stroke-width="2" fill-opacity="0"/><use xlink:href="#l" transform="matrix(1,0,0,1,191,-3815) translate(19.549999999999997 28.6)"/><use xlink:href="#i" transform="matrix(1,0,0,1,191,-3815) translate(59.55 28.6)"/><path d="M906-3760c-8.84 0-16 13.43-16 30s7.16 30 16 30H762c-8.84 0-16-13.43-16-30s7.16-30 16-30z" stroke="#000" stroke-width="2" fill-opacity="0"/><use xlink:href="#m" transform="matrix(1,0,0,1,751,-3755) translate(16.200000000000003 17.799999999999997)"/><use xlink:href="#n" transform="matrix(1,0,0,1,751,-3755) translate(80.95 17.799999999999997)"/><use xlink:href="#o" transform="matrix(1,0,0,1,751,-3755) translate(113.9 17.799999999999997)"/><use xlink:href="#p" transform="matrix(1,0,0,1,751,-3755) translate(40.825 39.4)"/><path d="M745-3730h-79.76" stroke="#000" stroke-width="2" fill="none"/><path d="M746-3730l.04 1H745v-2h1.08zM664.5-3725.36l-14.26-4.64 14.26-4.64z"/><path d="M665.5-3724l-18.5-6 18.5-6zm-12.03-6l10.03 3.26v-6.52z"/><path d="M725-3730c0 11.05-8.95 20-20 20s-20-8.95-20-20 8.95-20 20-20 20 8.95 20 20z" stroke="#000" stroke-width="2" fill="#ffeca9"/><use xlink:href="#q" transform="matrix(1,0,0,1,690,-3745) translate(10 18.6)"/><path d="M566-3761v-29H365.24" stroke="#000" stroke-width="2" fill="none"/><path d="M567-3760h-2v-1h2zM364.5-3785.36l-14.26-4.64 14.26-4.64z"/><path d="M365.5-3784l-18.5-6 18.5-6zm-12.03-6l10.03 3.26v-6.52z"/><path d="M266-3759v19.76" stroke="#000" stroke-width="2" fill="none"/><path d="M267-3759h-2v-1h2zM266-3724.24l-4.64-14.26h9.28z"/><path d="M266-3721l-6-18.5h12zm-3.26-16.5l3.26 10.03 3.26-10.03z"/><path d="M185-3790h-40v180h21.76" stroke="#000" stroke-width="2" fill="none"/><path d="M186-3789h-1v-2h1zM181.76-3610l-14.26 4.64v-9.28z"/><path d="M185-3610l-18.5 6v-12zm-16.5 3.26l10.03-3.26-10.03-3.26z"/><path d="M586-3671c0 11.05-8.95 20-20 20s-20-8.95-20-20 8.95-20 20-20 20 8.95 20 20z" stroke="#000" stroke-width="2" fill="#ffeca9"/><use xlink:href="#r" transform="matrix(1,0,0,1,551,-3686) translate(10 18.6)"/><path d="M468-3790c0 11.05-8.95 20-20 20s-20-8.95-20-20 8.95-20 20-20 20 8.95 20 20z" stroke="#000" stroke-width="2" fill="#ffeca9"/><use xlink:href="#s" transform="matrix(1,0,0,1,433,-3805) translate(10 18.6)"/><path d="M465-3620h141v40H465z" stroke="#000" stroke-opacity="0" stroke-width="2" fill="#fff" fill-opacity="0"/><use xlink:href="#t" transform="matrix(1,0,0,1,470,-3615) translate(5.574999999999996 18.6)"/><use xlink:href="#u" transform="matrix(1,0,0,1,470,-3615) translate(35.525 18.6)"/><path d="M793-3426h80v29h-80z" stroke="#000" stroke-opacity="0" stroke-width="2" fill="#fff" fill-opacity="0"/><use xlink:href="#v" transform="matrix(1,0,0,1,798,-3421) translate(3.0249999999999986 14.4)"/><path d="M685-3660c0 11.05-8.95 20-20 20s-20-8.95-20-20 8.95-20 20-20 20 8.95 20 20z" stroke="#000" stroke-width="2" fill="#ffeca9"/><use xlink:href="#w" transform="matrix(1,0,0,1,650,-3675) translate(10 18.6)"/><path d="M418-3520c0 11.05-8.95 20-20 20s-20-8.95-20-20 8.95-20 20-20 20 8.95 20 20z" stroke="#000" stroke-width="2" fill="#ffeca9"/><use xlink:href="#x" transform="matrix(1,0,0,1,383,-3535) translate(10 18.6)"/><path d="M128-3380h88v60h-88z" stroke="#000" stroke-width="2" fill="#fff"/><use xlink:href="#y" transform="matrix(1,0,0,1,133,-3375) translate(21.525 28.6)"/><path d="M230-3380h88v60h-88z" stroke="#000" stroke-width="2" fill="#fff"/><use xlink:href="#f" transform="matrix(1,0,0,1,235,-3375) translate(30.025 28.6)"/><path d="M332-3380h88v60h-88z" stroke="#000" stroke-width="2" fill="#fff"/><use xlink:href="#g" transform="matrix(1,0,0,1,337,-3375) translate(17.525 28.6)"/><path d="M194-3190h160v60H194z" stroke="#000" stroke-width="2" fill="#fff"/><use xlink:href="#z" transform="matrix(1,0,0,1,199,-3185) translate(23.124999999999993 28.6)"/><path d="M274-3319v39h2v20.76" stroke="#000" stroke-width="2" fill="none"/><path d="M275-3319h-2v-1h2zM276-3244.24l-4.64-14.26h9.28z"/><path d="M276-3241l-6-18.5h12zm-3.26-16.5l3.26 10.03 3.26-10.03z"/><path d="M274-3469v69.76" stroke="#000" stroke-width="2" fill="none"/><path d="M275-3469h-2v-1h2zM274-3384.24l-4.64-14.26h9.28z"/><path d="M274-3381l-6-18.5h12zm-3.26-16.5l3.26 10.03 3.26-10.03z"/><path d="M193-3500h-21v100.76" stroke="#000" stroke-width="2" fill="none"/><path d="M194-3499h-1v-2h1zM172-3384.24l-4.64-14.26h9.28z"/><path d="M172-3381l-6-18.5h12zm-3.26-16.5l3.26 10.03 3.26-10.03z"/><path d="M355-3500h21v100.76" stroke="#000" stroke-width="2" fill="none"/><path d="M355-3499h-1v-2h1zM376-3384.24l-4.64-14.26h9.28z"/><path d="M376-3381l-6-18.5h12zm-3.26-16.5l3.26 10.03 3.26-10.03z"/><path d="M546-3260h160v60H546z" stroke="#000" stroke-width="2" fill="#fff"/><use xlink:href="#z" transform="matrix(1,0,0,1,551,-3255) translate(23.124999999999993 28.6)"/><path d="M421-3183.35h56.26" stroke="#000" stroke-width="2" fill="none"/><path d="M421-3182.35h-1v-2h1zM492.26-3183.35l-14.26 4.63v-9.27z"/><path d="M495.5-3183.35l-18.5 6v-12zm-16.5 3.26l10.03-3.25-10.03-3.26z"/><path d="M565-3489v43.76" stroke="#000" stroke-width="2" fill="none"/><path d="M566-3489h-2v-1h2zM565-3430.24l-4.64-14.26h9.28z"/><path d="M565-3427l-6-18.5h12zm-3.26-16.5l3.26 10.03 3.26-10.03z"/><path d="M700-3360h120v60H700z" stroke="#000" stroke-width="2" fill="#fff"/><use xlink:href="#A" transform="matrix(1,0,0,1,705,-3355) translate(5.375 28.6)"/><use xlink:href="#B" transform="matrix(1,0,0,1,705,-3355) translate(45.725 28.6)"/><path d="M626-3261v-69h54.76" stroke="#000" stroke-width="2" fill="none"/><path d="M627-3260h-2v-1h2zM695.76-3330l-14.26 4.64v-9.28z"/><path d="M699-3330l-18.5 6v-12zm-16.5 3.26l10.03-3.26-10.03-3.26z"/><path d="M646-3320c0 11.05-8.95 20-20 20s-20-8.95-20-20 8.95-20 20-20 20 8.95 20 20z" stroke="#000" stroke-width="2" fill="#ffeca9"/><use xlink:href="#C" transform="matrix(1,0,0,1,611,-3335) translate(5.675000000000001 18.6)"/><path d="M760-3361v-74.54h111.98v-56.3" stroke="#000" stroke-width="2" fill="none"/><path d="M761-3360h-2v-1h2zM876.6-3492.57h-9.26l4.64-14.26z"/><path d="M878-3491.57h-12.03l6-18.5zm-9.28-2h6.52l-3.26-10.03z"/><path d="M892-3463c0 11.05-8.95 20-20 20s-20-8.95-20-20 8.95-20 20-20 20 8.95 20 20z" stroke="#000" stroke-width="2" fill="#ffeca9"/><use xlink:href="#D" transform="matrix(1,0,0,1,857,-3478) translate(5 18.6)"/><path d="M519-3380h95v40h-95z" stroke="#000" stroke-opacity="0" stroke-width="2" fill="#fff" fill-opacity="0"/><use xlink:href="#E" transform="matrix(1,0,0,1,524,-3375) translate(-4.100000000000001 18.6)"/><path d="M296-3463c0 11.05-8.95 20-20 20s-20-8.95-20-20 8.95-20 20-20 20 8.95 20 20z" stroke="#000" stroke-width="2" fill="#ffeca9"/><use xlink:href="#F" transform="matrix(1,0,0,1,261,-3478) translate(10 18.6)"/><path d="M192-2970h160v60H192z" stroke="#000" stroke-width="2" fill="#fff"/><use xlink:href="#G" transform="matrix(1,0,0,1,197,-2965) translate(34.05 28.6)"/><path d="M946.92-3512.04v587.18H371.24" stroke="#000" stroke-width="2" fill="none"/><path d="M947.92-3512.04h-2v-.82l2-.4zM370.5-2920.22l-14.26-4.64 14.26-4.63z"/><path d="M371.5-2918.85l-18.5-6 18.5-6.02zm-12.03-6l10.03 3.25v-6.52z"/><path d="M686.52-3140v-24.5h.48v-6.26" stroke="#000" stroke-width="2" fill="none"/><path d="M687.52-3139h-2v-1h2zM691.64-3171.5h-9.28l4.64-14.26z"/><path d="M693-3170.5h-12l6-18.5zm-9.26-2h6.52l-3.26-10.03z"/><path d="M740-3080h97v40h-97z" stroke="#000" stroke-width="2" fill="#fff"/><use xlink:href="#G" transform="matrix(1,0,0,1,745,-3075) translate(2.549999999999997 18.6)"/><path d="M518.5-3139H580v39h-61.5z" stroke="#000" stroke-opacity="0" stroke-width="2" fill="#fff" fill-opacity="0"/><use xlink:href="#g" transform="matrix(1,0,0,1,523.5,-3134) translate(4.524999999999999 18.1)"/><path d="M926.65-3509.88V-3060h-70.4" stroke="#000" stroke-width="2" fill="none"/><path d="M927.65-3509.88h-2v-.97l2-.06zM855.5-3055.36l-14.26-4.64 14.26-4.64z"/><path d="M856.5-3054l-18.5-6 18.5-6zm-12.03-6l10.03 3.26v-6.52z"/><path d="M128-2830h88v60h-88z" stroke="#000" stroke-width="2" fill="#fff"/><use xlink:href="#y" transform="matrix(1,0,0,1,133,-2825) translate(21.525 28.6)"/><path d="M228-2830h88v60h-88z" stroke="#000" stroke-width="2" fill="#fff"/><use xlink:href="#f" transform="matrix(1,0,0,1,233,-2825) translate(30.025 28.6)"/><path d="M330-2830h88v60h-88z" stroke="#000" stroke-width="2" fill="#fff"/><use xlink:href="#g" transform="matrix(1,0,0,1,335,-2825) translate(17.525 28.6)"/><path d="M272-2909v39H172v20.76" stroke="#000" stroke-width="2" fill="none"/><path d="M273-2909h-2v-1h2zM172-2834.24l-4.64-14.26h9.28z"/><path d="M172-2831l-6-18.5h12zm-3.26-16.5l3.26 10.03 3.26-10.03z"/><path d="M272-2909v59.76" stroke="#000" stroke-width="2" fill="none"/><path d="M273-2909h-2v-1h2zM272-2834.24l-4.64-14.26h9.28z"/><path d="M272-2831l-6-18.5h12zm-3.26-16.5l3.26 10.03 3.26-10.03z"/><path d="M272-2909v39h102.67v20.76" stroke="#000" stroke-width="2" fill="none"/><path d="M273-2909h-2v-1h2zM374.67-2834.24l-4.64-14.26h9.27z"/><path d="M374.67-2831l-6.02-18.5h12.03zm-3.26-16.5l3.27 10.03 3.26-10.03z"/><path d="M429.5-3180c0 11.05-8.95 20-20 20s-20-8.95-20-20 8.95-20 20-20 20 8.95 20 20z" stroke="#000" stroke-width="2" fill="#ffeca9"/><use xlink:href="#H" transform="matrix(1,0,0,1,394.5,-3195) translate(5 18.6)"/><path d="M196-3090h160v60H196z" stroke="#000" stroke-width="2" fill="#fff"/><use xlink:href="#I" transform="matrix(1,0,0,1,201,-3085) translate(32.05 28.6)"/><path d="M132-3240h80v24.5h-80z" stroke="#000" stroke-opacity="0" stroke-width="2" fill="#fff" fill-opacity="0"/><use xlink:href="#J" transform="matrix(1,0,0,1,137,-3235) translate(10.524999999999999 14.4)"/><path d="M495.5-3060H375.24" stroke="#000" stroke-width="2" fill="none"/><path d="M496.5-3059h-1v-2h1zM374.5-3055.36l-14.26-4.64 14.26-4.64z"/><path d="M375.5-3054l-18.5-6 18.5-6zm-12.03-6l10.03 3.26v-6.52z"/><path d="M276-3029v39.76" stroke="#000" stroke-width="2" fill="none"/><path d="M277-3029h-2v-1h2zM276-2974.24l-4.64-14.26h9.28z"/><path d="M276-2971l-6-18.5h12zm-3.26-16.5l3.26 10.03 3.26-10.03z"/><path d="M172-2769v40H92v-453.6h20.76" stroke="#000" stroke-width="2" fill="none"/><path d="M173-2769h-2v-1h2zM127.76-3182.6L113.5-3178v-9.27z"/><path d="M131-3182.6l-18.5 6v-12.02zm-16.5 3.25l10.03-3.26-10.03-3.27z"/><path d="M272-2769v40H91v-453.6h21.76" stroke="#000" stroke-width="2" fill="none"/><path d="M273-2769h-2v-1h2zM127.76-3182.6L113.5-3178v-9.27z"/><path d="M131-3182.6l-18.5 6v-12.02zm-16.5 3.25l10.03-3.26-10.03-3.27z"/><path d="M374-2769v40H92v-453.6h20.76" stroke="#000" stroke-width="2" fill="none"/><path d="M375-2769h-2v-1h2zM127.76-3182.6L113.5-3178v-9.27z"/><path d="M131-3182.6l-18.5 6v-12.02zm-16.5 3.25l10.03-3.26-10.03-3.27z"/><path d="M120-2950c0 11.05-8.95 20-20 20s-20-8.95-20-20 8.95-20 20-20 20 8.95 20 20z" stroke="#000" stroke-width="2" fill="#ffeca9"/><use xlink:href="#K" transform="matrix(1,0,0,1,85,-2965) translate(5 18.6)"/><path d="M603-3080h97v40h-97z" stroke="#000" stroke-width="2" fill="#fff"/><use xlink:href="#L" transform="matrix(1,0,0,1,608,-3075) translate(2.0749999999999957 18.6)"/><path d="M72-3560h141v40H72z" stroke="#000" stroke-opacity="0" stroke-width="2" fill="#fff" fill-opacity="0"/><use xlink:href="#M" transform="matrix(1,0,0,1,77,-3555) translate(5.574999999999996 18.6)"/><use xlink:href="#N" transform="matrix(1,0,0,1,77,-3555) translate(35.525 18.6)"/><path d="M376-3319v39H276v20.76" stroke="#000" stroke-width="2" fill="none"/><path d="M377-3319h-2v-1h2zM276-3244.24l-4.64-14.26h9.28z"/><path d="M276-3241l-6-18.5h12zm-3.26-16.5l3.26 10.03 3.26-10.03z"/><path d="M172-3319v39h104v20.76" stroke="#000" stroke-width="2" fill="none"/><path d="M173-3319h-2v-1h2zM276-3244.24l-4.64-14.26h9.28z"/><path d="M276-3241l-6-18.5h12zm-3.26-16.5l3.26 10.03 3.26-10.03z"/><path d="M294-3289c0 11.05-8.95 20-20 20s-20-8.95-20-20 8.95-20 20-20 20 8.95 20 20z" stroke="#000" stroke-width="2" fill="#ffeca9"/><use xlink:href="#O" transform="matrix(1,0,0,1,259,-3304) translate(10 18.6)"/><path d="M569-3040c0 11.05-8.95 20-20 20s-20-8.95-20-20 8.95-20 20-20 20 8.95 20 20z" stroke="#000" stroke-width="2" fill="#ffeca9"/><g><use xlink:href="#P" transform="matrix(1,0,0,1,534,-3055) translate(5 18.6)"/></g><path d="M430.5-3062c0 11.05-8.95 20-20 20s-20-8.95-20-20 8.95-20 20-20 20 8.95 20 20z" stroke="#000" stroke-width="2" fill="#ffeca9"/><g><use xlink:href="#Q" transform="matrix(1,0,0,1,395.5,-3077) translate(5 18.6)"/></g><path d="M716-3014v74H371.24" stroke="#000" stroke-width="2" fill="none"/><path d="M717-3014h-2v-1h2zM370.5-2935.36l-14.26-4.64 14.26-4.64z"/><path d="M371.5-2934l-18.5-6 18.5-6zm-12.03-6l10.03 3.26v-6.52z"/><path d="M431-2936c0 11.05-8.95 20-20 20s-20-8.95-20-20 8.95-20 20-20 20 8.95 20 20z" stroke="#000" stroke-width="2" fill="#ffeca9"/><g><use xlink:href="#R" transform="matrix(1,0,0,1,396,-2951) translate(5 18.6)"/></g></g><defs><path d="M101-234c-31-9-42 10-38 44h38v23H63V0H32v-167H5v-23h27c-7-52 17-82 69-68v24" id="S"/><path d="M114-163C36-179 61-72 57 0H25l-1-190h30c1 12-1 29 2 39 6-27 23-49 58-41v29" id="T"/><path d="M100-194c62-1 85 37 85 99 1 63-27 99-86 99S16-35 15-95c0-66 28-99 85-99zM99-20c44 1 53-31 53-75 0-43-8-75-51-75s-53 32-53 75 10 74 51 75" id="U"/><path d="M117-194c89-4 53 116 60 194h-32v-121c0-31-8-49-39-48C34-167 62-67 57 0H25l-1-190h30c1 10-1 24 2 32 11-22 29-35 61-36" id="V"/><path d="M59-47c-2 24 18 29 38 22v24C64 9 27 4 27-40v-127H5v-23h24l9-43h21v43h35v23H59v120" id="W"/><g id="a"><use transform="matrix(0.05,0,0,0.05,0,0)" xlink:href="#S"/><use transform="matrix(0.05,0,0,0.05,5,0)" xlink:href="#T"/><use transform="matrix(0.05,0,0,0.05,10.95,0)" xlink:href="#U"/><use transform="matrix(0.05,0,0,0.05,20.95,0)" xlink:href="#V"/><use transform="matrix(0.05,0,0,0.05,30.950000000000003,0)" xlink:href="#W"/></g><path d="M115-194c53 0 69 39 70 98 0 66-23 100-70 100C84 3 66-7 56-30L54 0H23l1-261h32v101c10-23 28-34 59-34zm-8 174c40 0 45-34 45-75 0-40-5-75-45-74-42 0-51 32-51 76 0 43 10 73 51 73" id="X"/><path d="M141-36C126-15 110 5 73 4 37 3 15-17 15-53c-1-64 63-63 125-63 3-35-9-54-41-54-24 1-41 7-42 31l-33-3c5-37 33-52 76-52 45 0 72 20 72 64v82c-1 20 7 32 28 27v20c-31 9-61-2-59-35zM48-53c0 20 12 33 32 33 41-3 63-29 60-74-43 2-92-5-92 41" id="Y"/><path d="M96-169c-40 0-48 33-48 73s9 75 48 75c24 0 41-14 43-38l32 2c-6 37-31 61-74 61-59 0-76-41-82-99-10-93 101-131 147-64 4 7 5 14 7 22l-32 3c-4-21-16-35-41-35" id="Z"/><path d="M143 0L79-87 56-68V0H24v-261h32v163l83-92h37l-77 82L181 0h-38" id="aa"/><g id="b"><use transform="matrix(0.05,0,0,0.05,0,0)" xlink:href="#X"/><use transform="matrix(0.05,0,0,0.05,10,0)" xlink:href="#Y"/><use transform="matrix(0.05,0,0,0.05,20,0)" xlink:href="#Z"/><use transform="matrix(0.05,0,0,0.05,29,0)" xlink:href="#aa"/></g><path d="M233-177c-1 41-23 64-60 70L243 0h-38l-65-103H63V0H30v-248c88 3 205-21 203 71zM63-129c60-2 137 13 137-47 0-61-80-42-137-45v92" id="ab"/><path d="M30-248c118-7 216 8 213 122C240-48 200 0 122 0H30v-248zM63-27c89 8 146-16 146-99s-60-101-146-95v194" id="ac"/><path d="M160-131c35 5 61 23 61 61C221 17 115-2 30 0v-248c76 3 177-17 177 60 0 33-19 50-47 57zm-97-11c50-1 110 9 110-42 0-47-63-36-110-37v79zm0 115c55-2 124 14 124-45 0-56-70-42-124-44v89" id="ad"/><g id="c"><use transform="matrix(0.05,0,0,0.05,0,0)" xlink:href="#ab"/><use transform="matrix(0.05,0,0,0.05,12.950000000000001,0)" xlink:href="#ac"/><use transform="matrix(0.05,0,0,0.05,25.900000000000002,0)" xlink:href="#ad"/></g><path d="M30 0v-248h187v28H63v79h144v27H63v87h162V0H30" id="ae"/><g id="d"><use transform="matrix(0.05,0,0,0.05,0,0)" xlink:href="#ae"/><use transform="matrix(0.05,0,0,0.05,12,0)" xlink:href="#ab"/></g><path d="M240 0l2-218c-23 76-54 145-80 218h-23L58-218 59 0H30v-248h44l77 211c21-75 51-140 76-211h43V0h-30" id="af"/><path d="M85-194c31 0 48 13 60 33l-1-100h32l1 261h-30c-2-10 0-23-3-31C134-8 116 4 85 4 32 4 16-35 15-94c0-66 23-100 70-100zm9 24c-40 0-46 34-46 75 0 40 6 74 45 74 42 0 51-32 51-76 0-42-9-74-50-73" id="ag"/><path d="M100-194c63 0 86 42 84 106H49c0 40 14 67 53 68 26 1 43-12 49-29l28 8c-11 28-37 45-77 45C44 4 14-33 15-96c1-61 26-98 85-98zm52 81c6-60-76-77-97-28-3 7-6 17-6 28h103" id="ah"/><path d="M24 0v-261h32V0H24" id="ai"/><g id="e"><use transform="matrix(0.05,0,0,0.05,0,0)" xlink:href="#af"/><use transform="matrix(0.05,0,0,0.05,14.950000000000001,0)" xlink:href="#U"/><use transform="matrix(0.05,0,0,0.05,24.950000000000003,0)" xlink:href="#ag"/><use transform="matrix(0.05,0,0,0.05,34.95,0)" xlink:href="#ah"/><use transform="matrix(0.05,0,0,0.05,44.95,0)" xlink:href="#ai"/></g><path d="M232-93c-1 65-40 97-104 97C67 4 28-28 28-90v-158h33c8 89-33 224 67 224 102 0 64-133 71-224h33v155" id="aj"/><path d="M33 0v-248h34V0H33" id="ak"/><g id="f"><use transform="matrix(0.05,0,0,0.05,0,0)" xlink:href="#aj"/><use transform="matrix(0.05,0,0,0.05,12.950000000000001,0)" xlink:href="#ak"/></g><path d="M212-179c-10-28-35-45-73-45-59 0-87 40-87 99 0 60 29 101 89 101 43 0 62-24 78-52l27 14C228-24 195 4 139 4 59 4 22-46 18-125c-6-104 99-153 187-111 19 9 31 26 39 46" id="al"/><g id="g"><use transform="matrix(0.05,0,0,0.05,0,0)" xlink:href="#al"/><use transform="matrix(0.05,0,0,0.05,12.950000000000001,0)" xlink:href="#U"/><use transform="matrix(0.05,0,0,0.05,22.950000000000003,0)" xlink:href="#ag"/><use transform="matrix(0.05,0,0,0.05,32.95,0)" xlink:href="#ah"/></g><path d="M24-231v-30h32v30H24zM24 0v-190h32V0H24" id="am"/><g id="h"><use transform="matrix(0.05,0,0,0.05,0,0)" xlink:href="#al"/><use transform="matrix(0.05,0,0,0.05,12.950000000000001,0)" xlink:href="#U"/><use transform="matrix(0.05,0,0,0.05,22.950000000000003,0)" xlink:href="#V"/><use transform="matrix(0.05,0,0,0.05,32.95,0)" xlink:href="#V"/><use transform="matrix(0.05,0,0,0.05,42.95,0)" xlink:href="#ah"/><use transform="matrix(0.05,0,0,0.05,52.95,0)" xlink:href="#Z"/><use transform="matrix(0.05,0,0,0.05,61.95,0)" xlink:href="#W"/><use transform="matrix(0.05,0,0,0.05,66.95,0)" xlink:href="#am"/><use transform="matrix(0.05,0,0,0.05,70.9,0)" xlink:href="#U"/><use transform="matrix(0.05,0,0,0.05,80.9,0)" xlink:href="#V"/></g><path d="M210-169c-67 3-38 105-44 169h-31v-121c0-29-5-50-35-48C34-165 62-65 56 0H25l-1-190h30c1 10-1 24 2 32 10-44 99-50 107 0 11-21 27-35 58-36 85-2 47 119 55 194h-31v-121c0-29-5-49-35-48" id="an"/><path d="M177-190C167-65 218 103 67 71c-23-6-38-20-44-43l32-5c15 47 100 32 89-28v-30C133-14 115 1 83 1 29 1 15-40 15-95c0-56 16-97 71-98 29-1 48 16 59 35 1-10 0-23 2-32h30zM94-22c36 0 50-32 50-73 0-42-14-75-50-75-39 0-46 34-46 75s6 73 46 73" id="ao"/><g id="i"><use transform="matrix(0.05,0,0,0.05,0,0)" xlink:href="#an"/><use transform="matrix(0.05,0,0,0.05,14.950000000000001,0)" xlink:href="#Y"/><use transform="matrix(0.05,0,0,0.05,24.950000000000003,0)" xlink:href="#V"/><use transform="matrix(0.05,0,0,0.05,34.95,0)" xlink:href="#Y"/><use transform="matrix(0.05,0,0,0.05,44.95,0)" xlink:href="#ao"/><use transform="matrix(0.05,0,0,0.05,54.95,0)" xlink:href="#ah"/><use transform="matrix(0.05,0,0,0.05,64.95,0)" xlink:href="#T"/></g><path d="M126-127c33 6 58 20 58 59 0 88-139 92-164 29-3-8-5-16-6-25l32-3c6 27 21 44 54 44 32 0 52-15 52-46 0-38-36-46-79-43v-28c39 1 72-4 72-42 0-27-17-43-46-43-28 0-47 15-49 41l-32-3c6-42 35-63 81-64 48-1 79 21 79 65 0 36-21 52-52 59" id="ap"/><use transform="matrix(0.05,0,0,0.05,0,0)" xlink:href="#ap" id="j"/><path d="M54-142c48-35 137-8 131 61C196 18 31 33 14-55l32-4c7 23 22 37 52 37 35-1 51-22 54-58 4-55-73-65-99-34H22l8-134h141v27H59" id="aq"/><use transform="matrix(0.05,0,0,0.05,0,0)" xlink:href="#aq" id="k"/><path d="M84 4C-5 8 30-112 23-190h32v120c0 31 7 50 39 49 72-2 45-101 50-169h31l1 190h-30c-1-10 1-25-2-33-11 22-28 36-60 37" id="ar"/><path d="M106-169C34-169 62-67 57 0H25v-261h32l-1 103c12-21 28-36 61-36 89 0 53 116 60 194h-32v-121c2-32-8-49-39-48" id="as"/><g id="l"><use transform="matrix(0.05,0,0,0.05,0,0)" xlink:href="#Y"/><use transform="matrix(0.05,0,0,0.05,10,0)" xlink:href="#ar"/><use transform="matrix(0.05,0,0,0.05,20,0)" xlink:href="#W"/><use transform="matrix(0.05,0,0,0.05,25,0)" xlink:href="#as"/></g><path d="M212-179c-10-28-35-45-73-45-59 0-87 40-87 99 0 60 29 101 89 101 43 0 62-24 78-52l27 14C228-24 195 4 139 4 59 4 22-46 18-125c-6-104 99-153 187-111 19 9 31 26 39 46" id="at"/><path d="M170-190V0h-32v-167H57V0H25v-190h145" id="au"/><path d="M56-190L54-37l88-153h34V0h-30l2-153L59 0H25v-190h31" id="av"/><path d="M96-169c-40 0-48 33-48 73s9 75 48 75c24 0 41-14 43-38l32 2c-6 37-31 61-74 61-59 0-76-41-82-99-10-93 101-131 147-64 4 7 5 14 7 22l-32 3c-4-21-16-35-41-35" id="aw"/><path d="M100-194c62-1 85 37 85 99 1 63-27 99-86 99S16-35 15-95c0-66 28-99 85-99zM99-20c44 1 53-31 53-75 0-43-8-75-51-75s-53 32-53 75 10 74 51 75" id="ax"/><path d="M75-87c-4 1-14 3-19 3V0H24v-190h32v83c26-2 31-21 43-41l26-42h33l-61 86L159 0h-35" id="ay"/><g id="m"><use transform="matrix(0.05,0,0,0.05,0,0)" xlink:href="#at"/><use transform="matrix(0.05,0,0,0.05,12.950000000000001,0)" xlink:href="#au"/><use transform="matrix(0.05,0,0,0.05,22.650000000000002,0)" xlink:href="#av"/><use transform="matrix(0.05,0,0,0.05,32.7,0)" xlink:href="#aw"/><use transform="matrix(0.05,0,0,0.05,41.900000000000006,0)" xlink:href="#ax"/><use transform="matrix(0.05,0,0,0.05,51.900000000000006,0)" xlink:href="#ay"/></g><path d="M105-20c41 1 53-27 53-68 0-40-9-69-50-69s-54 27-54 69c0 40 12 68 51 68zM47-134c10-28 31-47 68-47 56 0 76 33 76 92 1 60-28 90-86 93C-9 9 1-201 72-238c29-15 73-21 110-26v28c-67 12-144 10-135 102" id="az"/><path d="M141-36C126-15 110 5 73 4 37 3 15-17 15-53c-1-64 63-63 125-63 3-35-9-54-41-54-24 1-41 7-42 31l-33-3c5-37 33-52 76-52 45 0 72 20 72 64v82c-1 20 7 32 28 27v20c-31 9-61-2-59-35zM48-53c0 20 12 33 32 33 41-3 63-29 60-74-43 2-92-5-92 41" id="aA"/><path d="M152-53C154 19 21 22 9-41l28-8c5 36 84 42 81-4-1-29-28-34-58-35v-24c28 0 55-4 55-30 0-19-14-29-34-28-20 0-35 7-38 25l-28-3c4-33 30-46 66-46 37 0 66 15 66 50 0 27-20 41-44 44 27 5 48 17 49 47" id="aB"/><g id="n"><use transform="matrix(0.05,0,0,0.05,0,0)" xlink:href="#az"/><use transform="matrix(0.05,0,0,0.05,9.9,0)" xlink:href="#aA"/><use transform="matrix(0.05,0,0,0.05,19.700000000000003,0)" xlink:href="#aB"/></g><path d="M57-190v80h85v-80h32V0h-32v-87H57V0H25v-190h32" id="aC"/><g id="o"><use transform="matrix(0.05,0,0,0.05,0,0)" xlink:href="#aC"/><use transform="matrix(0.05,0,0,0.05,9.9,0)" xlink:href="#aA"/></g><path d="M100-194c63 0 86 42 84 106H49c0 40 14 67 53 68 26 1 43-12 49-29l28 8c-11 28-37 45-77 45C44 4 14-33 15-96c1-61 26-98 85-98zm52 81c6-60-76-77-97-28-3 7-6 17-6 28h103" id="aD"/><path d="M115-194c55 1 70 41 70 98S169 2 115 4C84 4 66-9 55-30l1 105H24l-1-265h31l2 30c10-21 28-34 59-34zm-8 174c40 0 45-34 45-75s-6-73-45-74c-42 0-51 32-51 76 0 43 10 73 51 73" id="aE"/><path d="M176-55C176 11 93 0 25 0v-190c61 3 142-15 144 47 1 29-21 35-39 44 27 3 46 16 46 44zm-34 0c0-41-47-30-85-32v64c38-1 85 8 85-32zm-6-83c0-36-44-26-79-28v56c34-2 79 8 79-28" id="aF"/><g id="p"><use transform="matrix(0.05,0,0,0.05,0,0)" xlink:href="#aw"/><use transform="matrix(0.05,0,0,0.05,9,0)" xlink:href="#aD"/><use transform="matrix(0.05,0,0,0.05,19,0)" xlink:href="#aE"/><use transform="matrix(0.05,0,0,0.05,29,0)" xlink:href="#aF"/><use transform="matrix(0.05,0,0,0.05,38.35,0)" xlink:href="#aD"/><use transform="matrix(0.05,0,0,0.05,48.35,0)" xlink:href="#aE"/><use transform="matrix(0.05,0,0,0.05,58.35,0)" xlink:href="#aD"/></g><path d="M27 0v-27h64v-190l-56 39v-29l58-41h29v221h61V0H27" id="aG"/><use transform="matrix(0.05,0,0,0.05,0,0)" xlink:href="#aG" id="q"/><path d="M155-56V0h-30v-56H8v-25l114-167h33v167h35v25h-35zm-30-156c-27 46-58 90-88 131h88v-131" id="aH"/><use transform="matrix(0.05,0,0,0.05,0,0)" xlink:href="#aH" id="r"/><path d="M101-251c82-7 93 87 43 132L82-64C71-53 59-42 53-27h129V0H18c2-99 128-94 128-182 0-28-16-43-45-43s-46 15-49 41l-32-3c6-41 34-60 81-64" id="aI"/><use transform="matrix(0.05,0,0,0.05,0,0)" xlink:href="#aI" id="s"/><g id="t"><use transform="matrix(0.05,0,0,0.05,0,0)" xlink:href="#ac"/><use transform="matrix(0.05,0,0,0.05,12.950000000000001,0)" xlink:href="#ad"/></g><g id="u"><use transform="matrix(0.05,0,0,0.05,0,0)" xlink:href="#al"/><use transform="matrix(0.05,0,0,0.05,12.950000000000001,0)" xlink:href="#U"/><use transform="matrix(0.05,0,0,0.05,22.950000000000003,0)" xlink:href="#V"/><use transform="matrix(0.05,0,0,0.05,32.95,0)" xlink:href="#V"/><use transform="matrix(0.05,0,0,0.05,42.95,0)" xlink:href="#ah"/><use transform="matrix(0.05,0,0,0.05,52.95,0)" xlink:href="#Z"/><use transform="matrix(0.05,0,0,0.05,61.95,0)" xlink:href="#W"/><use transform="matrix(0.05,0,0,0.05,66.95,0)" xlink:href="#am"/><use transform="matrix(0.05,0,0,0.05,70.9,0)" xlink:href="#U"/><use transform="matrix(0.05,0,0,0.05,80.9,0)" xlink:href="#V"/></g><path d="M185-189c-5-48-123-54-124 2 14 75 158 14 163 119 3 78-121 87-175 55-17-10-28-26-33-46l33-7c5 56 141 63 141-1 0-78-155-14-162-118-5-82 145-84 179-34 5 7 8 16 11 25" id="aJ"/><path d="M135-143c-3-34-86-38-87 0 15 53 115 12 119 90S17 21 10-45l28-5c4 36 97 45 98 0-10-56-113-15-118-90-4-57 82-63 122-42 12 7 21 19 24 35" id="aK"/><g id="v"><use transform="matrix(0.05,0,0,0.05,0,0)" xlink:href="#aJ"/><use transform="matrix(0.05,0,0,0.05,12,0)" xlink:href="#ah"/><use transform="matrix(0.05,0,0,0.05,22,0)" xlink:href="#aK"/><use transform="matrix(0.05,0,0,0.05,31,0)" xlink:href="#aK"/><use transform="matrix(0.05,0,0,0.05,40,0)" xlink:href="#am"/><use transform="matrix(0.05,0,0,0.05,43.95,0)" xlink:href="#U"/><use transform="matrix(0.05,0,0,0.05,53.95,0)" xlink:href="#V"/></g><path d="M110-160c48 1 74 30 74 79 0 53-28 85-80 85-65 0-83-55-86-122-5-90 50-162 133-122 14 7 22 21 27 39l-31 6c-5-40-67-38-82-6-9 19-15 44-15 74 11-20 30-34 60-33zm-7 138c34 0 49-23 49-58s-16-56-50-56c-29 0-50 16-49 49 1 36 15 65 50 65" id="aL"/><use transform="matrix(0.05,0,0,0.05,0,0)" xlink:href="#aL" id="w"/><path d="M64 0c3-98 48-159 88-221H18v-27h164v26C143-157 98-101 97 0H64" id="aM"/><use transform="matrix(0.05,0,0,0.05,0,0)" xlink:href="#aM" id="x"/><path d="M190 0L58-211 59 0H30v-248h39L202-35l-2-213h31V0h-41" id="aN"/><path d="M30 0v-248h33v221h125V0H30" id="aO"/><path d="M30-248c87 1 191-15 191 75 0 78-77 80-158 76V0H30v-248zm33 125c57 0 124 11 124-50 0-59-68-47-124-48v98" id="aP"/><g id="y"><use transform="matrix(0.05,0,0,0.05,0,0)" xlink:href="#aN"/><use transform="matrix(0.05,0,0,0.05,12.950000000000001,0)" xlink:href="#aO"/><use transform="matrix(0.05,0,0,0.05,22.950000000000003,0)" xlink:href="#aP"/></g><path d="M87 75C49 33 22-17 22-94c0-76 28-126 65-167h31c-38 41-64 92-64 168S80 34 118 75H87" id="aQ"/><path d="M33-261c38 41 65 92 65 168S71 34 33 75H2C39 34 66-17 66-93S39-220 2-261h31" id="aR"/><g id="z"><use transform="matrix(0.05,0,0,0.05,0,0)" xlink:href="#al"/><use transform="matrix(0.05,0,0,0.05,12.950000000000001,0)" xlink:href="#U"/><use transform="matrix(0.05,0,0,0.05,22.950000000000003,0)" xlink:href="#an"/><use transform="matrix(0.05,0,0,0.05,37.900000000000006,0)" xlink:href="#an"/><use transform="matrix(0.05,0,0,0.05,52.85,0)" xlink:href="#Y"/><use transform="matrix(0.05,0,0,0.05,62.85,0)" xlink:href="#V"/><use transform="matrix(0.05,0,0,0.05,72.85000000000001,0)" xlink:href="#ag"/><use transform="matrix(0.05,0,0,0.05,82.85000000000001,0)" xlink:href="#aQ"/><use transform="matrix(0.05,0,0,0.05,88.80000000000001,0)" xlink:href="#aK"/><use transform="matrix(0.05,0,0,0.05,97.80000000000001,0)" xlink:href="#aR"/></g><path d="M140-251c81 0 123 46 123 126C263-53 228-8 163 1c7 30 30 48 69 40v23c-55 16-95-15-103-61C56-3 17-48 17-125c0-80 42-126 123-126zm0 227c63 0 89-41 89-101s-29-99-89-99c-61 0-89 39-89 99S79-25 140-24" id="aS"/><g id="A"><use transform="matrix(0.05,0,0,0.05,0,0)" xlink:href="#aJ"/><use transform="matrix(0.05,0,0,0.05,12,0)" xlink:href="#aS"/><use transform="matrix(0.05,0,0,0.05,26,0)" xlink:href="#aO"/></g><path d="M145-31C134-9 116 4 85 4 32 4 16-35 15-94c0-59 17-99 70-100 32-1 48 14 60 33 0-11-1-24 2-32h30l-1 268h-32zM93-21c41 0 51-33 51-76s-8-73-50-73c-40 0-46 35-46 75s5 74 45 74" id="aT"/><g id="B"><use transform="matrix(0.05,0,0,0.05,0,0)" xlink:href="#aT"/><use transform="matrix(0.05,0,0,0.05,10,0)" xlink:href="#ar"/><use transform="matrix(0.05,0,0,0.05,20,0)" xlink:href="#ah"/><use transform="matrix(0.05,0,0,0.05,30,0)" xlink:href="#T"/><use transform="matrix(0.05,0,0,0.05,35.95,0)" xlink:href="#am"/><use transform="matrix(0.05,0,0,0.05,39.900000000000006,0)" xlink:href="#ah"/><use transform="matrix(0.05,0,0,0.05,49.900000000000006,0)" xlink:href="#aK"/></g><g id="C"><use transform="matrix(0.05,0,0,0.05,0,0)" xlink:href="#aG"/><use transform="matrix(0.05,0,0,0.05,8.65,0)" xlink:href="#aG"/></g><g id="D"><use transform="matrix(0.05,0,0,0.05,0,0)" xlink:href="#aG"/><use transform="matrix(0.05,0,0,0.05,10,0)" xlink:href="#aI"/></g><path d="M127-220V0H93v-220H8v-28h204v28h-85" id="aU"/><g id="E"><use transform="matrix(0.05,0,0,0.05,0,0)" xlink:href="#aU"/><use transform="matrix(0.05,0,0,0.05,10.3,0)" xlink:href="#T"/><use transform="matrix(0.05,0,0,0.05,16.25,0)" xlink:href="#Y"/><use transform="matrix(0.05,0,0,0.05,26.25,0)" xlink:href="#V"/><use transform="matrix(0.05,0,0,0.05,36.25,0)" xlink:href="#aK"/><use transform="matrix(0.05,0,0,0.05,45.25,0)" xlink:href="#Y"/><use transform="matrix(0.05,0,0,0.05,55.25,0)" xlink:href="#Z"/><use transform="matrix(0.05,0,0,0.05,64.25,0)" xlink:href="#W"/><use transform="matrix(0.05,0,0,0.05,69.25,0)" xlink:href="#am"/><use transform="matrix(0.05,0,0,0.05,73.2,0)" xlink:href="#U"/><use transform="matrix(0.05,0,0,0.05,83.2,0)" xlink:href="#V"/></g><path d="M134-131c28 9 52 24 51 62-1 50-34 73-85 73S17-19 16-69c0-36 21-54 49-61-75-25-45-126 34-121 46 3 78 18 79 63 0 33-17 51-44 57zm-34-11c31 1 46-15 46-44 0-28-17-43-47-42-29 0-46 13-45 42 1 28 16 44 46 44zm1 122c35 0 51-18 51-52 0-30-18-46-53-46-33 0-51 17-51 47 0 34 19 51 53 51" id="aV"/><use transform="matrix(0.05,0,0,0.05,0,0)" xlink:href="#aV" id="F"/><g id="G"><use transform="matrix(0.05,0,0,0.05,0,0)" xlink:href="#ab"/><use transform="matrix(0.05,0,0,0.05,12.950000000000001,0)" xlink:href="#ah"/><use transform="matrix(0.05,0,0,0.05,22.950000000000003,0)" xlink:href="#Z"/><use transform="matrix(0.05,0,0,0.05,31.950000000000003,0)" xlink:href="#U"/><use transform="matrix(0.05,0,0,0.05,41.95,0)" xlink:href="#T"/><use transform="matrix(0.05,0,0,0.05,47.900000000000006,0)" xlink:href="#ag"/><use transform="matrix(0.05,0,0,0.05,57.900000000000006,0)" xlink:href="#aK"/><use transform="matrix(0.05,0,0,0.05,66.9,0)" xlink:href="#ah"/><use transform="matrix(0.05,0,0,0.05,76.9,0)" xlink:href="#W"/></g><path d="M101-251c68 0 85 55 85 127S166 4 100 4C33 4 14-52 14-124c0-73 17-127 87-127zm-1 229c47 0 54-49 54-102s-4-102-53-102c-51 0-55 48-55 102 0 53 5 102 54 102" id="aW"/><g id="H"><use transform="matrix(0.05,0,0,0.05,0,0)" xlink:href="#aG"/><use transform="matrix(0.05,0,0,0.05,10,0)" xlink:href="#aW"/></g><path d="M0 4l72-265h28L28 4H0" id="aX"/><g id="I"><use transform="matrix(0.05,0,0,0.05,0,0)" xlink:href="#ab"/><use transform="matrix(0.05,0,0,0.05,12.950000000000001,0)" xlink:href="#ah"/><use transform="matrix(0.05,0,0,0.05,22.950000000000003,0)" xlink:href="#aK"/><use transform="matrix(0.05,0,0,0.05,31.950000000000003,0)" xlink:href="#ar"/><use transform="matrix(0.05,0,0,0.05,41.95,0)" xlink:href="#ai"/><use transform="matrix(0.05,0,0,0.05,45.900000000000006,0)" xlink:href="#W"/><use transform="matrix(0.05,0,0,0.05,50.900000000000006,0)" xlink:href="#aX"/><use transform="matrix(0.05,0,0,0.05,55.900000000000006,0)" xlink:href="#aO"/><use transform="matrix(0.05,0,0,0.05,65.9,0)" xlink:href="#U"/><use transform="matrix(0.05,0,0,0.05,75.9,0)" xlink:href="#ao"/></g><path d="M179-190L93 31C79 59 56 82 12 73V49c39 6 53-20 64-50L1-190h34L92-34l54-156h33" id="aY"/><g id="J"><use transform="matrix(0.05,0,0,0.05,0,0)" xlink:href="#aS"/><use transform="matrix(0.05,0,0,0.05,14,0)" xlink:href="#ar"/><use transform="matrix(0.05,0,0,0.05,24,0)" xlink:href="#ah"/><use transform="matrix(0.05,0,0,0.05,34,0)" xlink:href="#T"/><use transform="matrix(0.05,0,0,0.05,39.95,0)" xlink:href="#aY"/></g><g id="K"><use transform="matrix(0.05,0,0,0.05,0,0)" xlink:href="#aG"/><use transform="matrix(0.05,0,0,0.05,10,0)" xlink:href="#aL"/></g><g id="L"><use transform="matrix(0.05,0,0,0.05,0,0)" xlink:href="#al"/><use transform="matrix(0.05,0,0,0.05,12.950000000000001,0)" xlink:href="#U"/><use transform="matrix(0.05,0,0,0.05,22.950000000000003,0)" xlink:href="#an"/><use transform="matrix(0.05,0,0,0.05,37.900000000000006,0)" xlink:href="#an"/><use transform="matrix(0.05,0,0,0.05,52.85,0)" xlink:href="#Y"/><use transform="matrix(0.05,0,0,0.05,62.85,0)" xlink:href="#V"/><use transform="matrix(0.05,0,0,0.05,72.85000000000001,0)" xlink:href="#ag"/></g><g id="M"><use transform="matrix(0.05,0,0,0.05,0,0)" xlink:href="#ac"/><use transform="matrix(0.05,0,0,0.05,12.950000000000001,0)" xlink:href="#ad"/></g><g id="N"><use transform="matrix(0.05,0,0,0.05,0,0)" xlink:href="#al"/><use transform="matrix(0.05,0,0,0.05,12.950000000000001,0)" xlink:href="#U"/><use transform="matrix(0.05,0,0,0.05,22.950000000000003,0)" xlink:href="#V"/><use transform="matrix(0.05,0,0,0.05,32.95,0)" xlink:href="#V"/><use transform="matrix(0.05,0,0,0.05,42.95,0)" xlink:href="#ah"/><use transform="matrix(0.05,0,0,0.05,52.95,0)" xlink:href="#Z"/><use transform="matrix(0.05,0,0,0.05,61.95,0)" xlink:href="#W"/><use transform="matrix(0.05,0,0,0.05,66.95,0)" xlink:href="#am"/><use transform="matrix(0.05,0,0,0.05,70.9,0)" xlink:href="#U"/><use transform="matrix(0.05,0,0,0.05,80.9,0)" xlink:href="#V"/></g><path d="M99-251c64 0 84 50 84 122C183-37 130 33 47-8c-14-7-20-23-25-40l30-5c6 39 69 39 84 7 9-19 16-44 16-74-10 22-31 35-62 35-49 0-73-33-73-83 0-54 28-83 82-83zm-1 141c31-1 51-18 51-49 0-36-14-67-51-67-34 0-49 23-49 58 0 34 15 58 49 58" id="aZ"/><use transform="matrix(0.05,0,0,0.05,0,0)" xlink:href="#aZ" id="O"/><g id="P"><use transform="matrix(0.05,0,0,0.05,0,0)" xlink:href="#aG"/><use transform="matrix(0.05,0,0,0.05,10,0)" xlink:href="#ap"/></g><g id="Q"><use transform="matrix(0.05,0,0,0.05,0,0)" xlink:href="#aG"/><use transform="matrix(0.05,0,0,0.05,10,0)" xlink:href="#aH"/></g><g id="R"><use transform="matrix(0.05,0,0,0.05,0,0)" xlink:href="#aG"/><use transform="matrix(0.05,0,0,0.05,10,0)" xlink:href="#aq"/></g></defs></g></svg>