<svg xmlns="http://www.w3.org/2000/svg" xmlns:xlink="http://www.w3.org/1999/xlink" xmlns:lucid="lucid" width="1984" height="1360"><g transform="translate(0 3888)" lucid:page-tab-id="0_0"><g class="lucid-layer" lucid:layer-id="uJz9yqxo-90-" display="block"><path d="M880-3860v1280" fill="none"/><path d="M880-3860v4m0 8v8m0 8v8m0 8v8m0 8v8m0 8v8m0 8v8m0 8v8m0 8v8m0 8v8m0 8v8m0 8v8m0 8v8m0 8v8m0 8v8m0 8v8m0 8v8m0 8v8m0 8v8m0 8v8m0 8v8m0 8v8m0 8v8m0 8v8m0 8v8m0 8v8m0 8v8m0 8v8m0 8v8m0 8v8m0 8v8m0 8v8m0 8v8m0 8v8m0 8v8m0 8v8m0 8v8m0 8v8m0 8v8m0 8v8m0 8v8m0 8v8m0 8v8m0 8v8m0 8v8m0 8v8m0 8v8m0 8v8m0 8v8m0 8v8m0 8v8m0 8v8m0 8v8m0 8v8m0 8v8m0 8v8m0 8v8m0 8v8m0 8v8m0 8v8m0 8v8m0 8v8m0 8v8m0 8v8m0 8v8m0 8v8m0 8v8m0 8v8m0 8v8m0 8v8m0 8v8m0 8v8m0 8v8m0 8v8m0 8v8m0 8v8m0 8v8m0 8v8m0 8v8m0 8v8m0 8v4" stroke="#b2b2b2" stroke-width="2" fill="none"/><path d="M40-3840h88v40H40z" stroke="#000" stroke-opacity="0" stroke-width="2" fill="#fff" fill-opacity="0"/><use xlink:href="#a" transform="matrix(1,0,0,1,45,-3835) translate(21.025 18.6)"/><path d="M1620-3840h88v40h-88z" stroke="#000" stroke-opacity="0" stroke-width="2" fill="#fff" fill-opacity="0"/><use xlink:href="#b" transform="matrix(1,0,0,1,1625,-3835) translate(20 18.6)"/></g><g class="lucid-layer" lucid:layer-id="zMz9j7YK_hOt" display="block"><path d="M940-3600h780v400H940z" stroke="#000" stroke-width="2" fill="#c7e8ac"/><path d="M1390-3452c0 6.63-26.86 12-60 12s-60-5.37-60-12v-96c0-6.63 26.86-12 60-12s60 5.37 60 12z" stroke="#000" stroke-width="2" fill="#fff"/><path d="M1390-3548c0 6.63-26.86 12-60 12s-60-5.37-60-12" stroke="#000" stroke-width="2" fill="none"/><use xlink:href="#c" transform="matrix(1,0,0,1,1275,-3531) translate(36.05 46.6)"/><path d="M660-3540h160v80H660z" stroke="#000" stroke-width="2" fill="#fff"/><use xlink:href="#d" transform="matrix(1,0,0,1,665,-3535) translate(35.574999999999996 38.6)"/><use xlink:href="#e" transform="matrix(1,0,0,1,665,-3535) translate(65.525 38.6)"/><path d="M980-3540h160v80H980z" stroke="#000" stroke-width="2" fill="#fff"/><use xlink:href="#d" transform="matrix(1,0,0,1,985,-3535) translate(35.574999999999996 38.6)"/><use xlink:href="#e" transform="matrix(1,0,0,1,985,-3535) translate(65.525 38.6)"/><path d="M1269-3500h-109.76" stroke="#000" stroke-width="2" fill="none"/><path d="M1270-3499h-1v-2h1zM1158.5-3495.36l-14.26-4.64 14.26-4.64z"/><path d="M1159.5-3494l-18.5-6 18.5-6zm-12.03-6l10.03 3.26v-6.52z"/><path d="M979-3500H839.24" stroke="#000" stroke-width="2" fill="none"/><path d="M980-3499h-1v-2h1zM838.5-3495.36l-14.26-4.64 14.26-4.64z"/><path d="M839.5-3494l-18.5-6 18.5-6zm-12.03-6l10.03 3.26v-6.52z"/><path d="M560-3720h160v60H560z" stroke="#000" stroke-width="2" fill="#fff"/><use xlink:href="#f" transform="matrix(1,0,0,1,565,-3715) translate(66.025 28.6)"/><path d="M560-3640h160v60H560z" stroke="#000" stroke-width="2" fill="#fff"/><use xlink:href="#g" transform="matrix(1,0,0,1,565,-3635) translate(53.525 28.6)"/><path d="M940-3760h160v60H940z" stroke="#000" stroke-width="2" fill="#fff"/><use xlink:href="#h" transform="matrix(1,0,0,1,945,-3755) translate(29.549999999999997 17.799999999999997)"/><use xlink:href="#i" transform="matrix(1,0,0,1,945,-3755) translate(39.55 39.4)"/><path d="M721-3690h109v-40h90.76" stroke="#000" stroke-width="2" fill="none"/><path d="M721-3689h-1v-2h1zM935.76-3730l-14.26 4.64v-9.28z"/><path d="M939-3730l-18.5 6v-12zm-16.5 3.26l10.03-3.26-10.03-3.26z"/><path d="M721-3610h109v-120h90.76" stroke="#000" stroke-width="2" fill="none"/><path d="M721-3609h-1v-2h1zM935.76-3730l-14.26 4.64v-9.28z"/><path d="M939-3730l-18.5 6v-12zm-16.5 3.26l10.03-3.26-10.03-3.26z"/><path d="M850-3690c0 11.05-8.95 20-20 20s-20-8.95-20-20 8.95-20 20-20 20 8.95 20 20z" stroke="#000" stroke-width="2" fill="#ffeca9"/><use xlink:href="#j" transform="matrix(1,0,0,1,815,-3705) translate(10 18.6)"/><path d="M1225-3500c0 11.05-8.95 20-20 20s-20-8.95-20-20 8.95-20 20-20 20 8.95 20 20z" stroke="#000" stroke-width="2" fill="#ffeca9"/><use xlink:href="#j" transform="matrix(1,0,0,1,1190,-3515) translate(10 18.6)"/><path d="M1020-3699v79.76" stroke="#000" stroke-width="2" fill="none"/><path d="M1021-3699h-2v-1h2zM1020-3604.24l-4.64-14.26h9.28z"/><path d="M1020-3601l-6-18.5h12zm-3.26-16.5l3.26 10.03 3.26-10.03z"/><path d="M360-3320h160v120H360z" stroke="#000" stroke-width="2" fill-opacity="0"/><use xlink:href="#k" transform="matrix(1,0,0,1,365,-3315) translate(42.525 58.6)"/><path d="M560-3820h160v60H560z" stroke="#000" stroke-width="2" fill-opacity="0"/><use xlink:href="#l" transform="matrix(1,0,0,1,565,-3815) translate(19.549999999999997 28.6)"/><use xlink:href="#i" transform="matrix(1,0,0,1,565,-3815) translate(59.55 28.6)"/><path d="M1400-3760c-8.84 0-16 13.43-16 30s7.16 30 16 30h-144c-8.84 0-16-13.43-16-30s7.16-30 16-30z" stroke="#000" stroke-width="2" fill-opacity="0"/><use xlink:href="#m" transform="matrix(1,0,0,1,1245,-3755) translate(16.200000000000003 17.799999999999997)"/><use xlink:href="#n" transform="matrix(1,0,0,1,1245,-3755) translate(80.95 17.799999999999997)"/><use xlink:href="#o" transform="matrix(1,0,0,1,1245,-3755) translate(113.9 17.799999999999997)"/><use xlink:href="#p" transform="matrix(1,0,0,1,1245,-3755) translate(40.825 39.4)"/><path d="M1239-3730h-119.76" stroke="#000" stroke-width="2" fill="none"/><path d="M1240-3730l.04 1H1239v-2h1.08zM1118.5-3725.36l-14.26-4.64 14.26-4.64z"/><path d="M1119.5-3724l-18.5-6 18.5-6zm-12.03-6l10.03 3.26v-6.52z"/><path d="M1200-3730c0 11.05-8.95 20-20 20s-20-8.95-20-20 8.95-20 20-20 20 8.95 20 20z" stroke="#000" stroke-width="2" fill="#ffeca9"/><use xlink:href="#q" transform="matrix(1,0,0,1,1165,-3745) translate(10 18.6)"/><path d="M1020-3761v-29H739.24" stroke="#000" stroke-width="2" fill="none"/><path d="M1021-3760h-2v-1h2zM738.5-3785.36l-14.26-4.64 14.26-4.64z"/><path d="M739.5-3784l-18.5-6 18.5-6zm-12.03-6l10.03 3.26v-6.52z"/><path d="M640-3759v19.76" stroke="#000" stroke-width="2" fill="none"/><path d="M641-3759h-2v-1h2zM640-3724.24l-4.64-14.26h9.28z"/><path d="M640-3721l-6-18.5h12zm-3.26-16.5l3.26 10.03 3.26-10.03z"/><path d="M559-3790h-40v180h21.76" stroke="#000" stroke-width="2" fill="none"/><path d="M560-3789h-1v-2h1zM555.76-3610l-14.26 4.64v-9.28z"/><path d="M559-3610l-18.5 6v-12zm-16.5 3.26l10.03-3.26-10.03-3.26z"/><path d="M1040-3660c0 11.05-8.95 20-20 20s-20-8.95-20-20 8.95-20 20-20 20 8.95 20 20z" stroke="#000" stroke-width="2" fill="#ffeca9"/><g><use xlink:href="#r" transform="matrix(1,0,0,1,1005,-3675) translate(10 18.6)"/></g><path d="M900-3790c0 11.05-8.95 20-20 20s-20-8.95-20-20 8.95-20 20-20 20 8.95 20 20z" stroke="#000" stroke-width="2" fill="#ffeca9"/><g><use xlink:href="#s" transform="matrix(1,0,0,1,865,-3805) translate(10 18.6)"/></g></g><defs><path d="M101-234c-31-9-42 10-38 44h38v23H63V0H32v-167H5v-23h27c-7-52 17-82 69-68v24" id="t"/><path d="M114-163C36-179 61-72 57 0H25l-1-190h30c1 12-1 29 2 39 6-27 23-49 58-41v29" id="u"/><path d="M100-194c62-1 85 37 85 99 1 63-27 99-86 99S16-35 15-95c0-66 28-99 85-99zM99-20c44 1 53-31 53-75 0-43-8-75-51-75s-53 32-53 75 10 74 51 75" id="v"/><path d="M117-194c89-4 53 116 60 194h-32v-121c0-31-8-49-39-48C34-167 62-67 57 0H25l-1-190h30c1 10-1 24 2 32 11-22 29-35 61-36" id="w"/><path d="M59-47c-2 24 18 29 38 22v24C64 9 27 4 27-40v-127H5v-23h24l9-43h21v43h35v23H59v120" id="x"/><g id="a"><use transform="matrix(0.05,0,0,0.05,0,0)" xlink:href="#t"/><use transform="matrix(0.05,0,0,0.05,5,0)" xlink:href="#u"/><use transform="matrix(0.05,0,0,0.05,10.95,0)" xlink:href="#v"/><use transform="matrix(0.05,0,0,0.05,20.95,0)" xlink:href="#w"/><use transform="matrix(0.05,0,0,0.05,30.950000000000003,0)" xlink:href="#x"/></g><path d="M115-194c53 0 69 39 70 98 0 66-23 100-70 100C84 3 66-7 56-30L54 0H23l1-261h32v101c10-23 28-34 59-34zm-8 174c40 0 45-34 45-75 0-40-5-75-45-74-42 0-51 32-51 76 0 43 10 73 51 73" id="y"/><path d="M141-36C126-15 110 5 73 4 37 3 15-17 15-53c-1-64 63-63 125-63 3-35-9-54-41-54-24 1-41 7-42 31l-33-3c5-37 33-52 76-52 45 0 72 20 72 64v82c-1 20 7 32 28 27v20c-31 9-61-2-59-35zM48-53c0 20 12 33 32 33 41-3 63-29 60-74-43 2-92-5-92 41" id="z"/><path d="M96-169c-40 0-48 33-48 73s9 75 48 75c24 0 41-14 43-38l32 2c-6 37-31 61-74 61-59 0-76-41-82-99-10-93 101-131 147-64 4 7 5 14 7 22l-32 3c-4-21-16-35-41-35" id="A"/><path d="M143 0L79-87 56-68V0H24v-261h32v163l83-92h37l-77 82L181 0h-38" id="B"/><g id="b"><use transform="matrix(0.05,0,0,0.05,0,0)" xlink:href="#y"/><use transform="matrix(0.05,0,0,0.05,10,0)" xlink:href="#z"/><use transform="matrix(0.05,0,0,0.05,20,0)" xlink:href="#A"/><use transform="matrix(0.05,0,0,0.05,29,0)" xlink:href="#B"/></g><path d="M233-177c-1 41-23 64-60 70L243 0h-38l-65-103H63V0H30v-248c88 3 205-21 203 71zM63-129c60-2 137 13 137-47 0-61-80-42-137-45v92" id="C"/><path d="M30-248c118-7 216 8 213 122C240-48 200 0 122 0H30v-248zM63-27c89 8 146-16 146-99s-60-101-146-95v194" id="D"/><path d="M160-131c35 5 61 23 61 61C221 17 115-2 30 0v-248c76 3 177-17 177 60 0 33-19 50-47 57zm-97-11c50-1 110 9 110-42 0-47-63-36-110-37v79zm0 115c55-2 124 14 124-45 0-56-70-42-124-44v89" id="E"/><g id="c"><use transform="matrix(0.05,0,0,0.05,0,0)" xlink:href="#C"/><use transform="matrix(0.05,0,0,0.05,12.950000000000001,0)" xlink:href="#D"/><use transform="matrix(0.05,0,0,0.05,25.900000000000002,0)" xlink:href="#E"/></g><path d="M30 0v-248h187v28H63v79h144v27H63v87h162V0H30" id="F"/><g id="d"><use transform="matrix(0.05,0,0,0.05,0,0)" xlink:href="#F"/><use transform="matrix(0.05,0,0,0.05,12,0)" xlink:href="#C"/></g><path d="M240 0l2-218c-23 76-54 145-80 218h-23L58-218 59 0H30v-248h44l77 211c21-75 51-140 76-211h43V0h-30" id="G"/><path d="M85-194c31 0 48 13 60 33l-1-100h32l1 261h-30c-2-10 0-23-3-31C134-8 116 4 85 4 32 4 16-35 15-94c0-66 23-100 70-100zm9 24c-40 0-46 34-46 75 0 40 6 74 45 74 42 0 51-32 51-76 0-42-9-74-50-73" id="H"/><path d="M100-194c63 0 86 42 84 106H49c0 40 14 67 53 68 26 1 43-12 49-29l28 8c-11 28-37 45-77 45C44 4 14-33 15-96c1-61 26-98 85-98zm52 81c6-60-76-77-97-28-3 7-6 17-6 28h103" id="I"/><path d="M24 0v-261h32V0H24" id="J"/><g id="e"><use transform="matrix(0.05,0,0,0.05,0,0)" xlink:href="#G"/><use transform="matrix(0.05,0,0,0.05,14.950000000000001,0)" xlink:href="#v"/><use transform="matrix(0.05,0,0,0.05,24.950000000000003,0)" xlink:href="#H"/><use transform="matrix(0.05,0,0,0.05,34.95,0)" xlink:href="#I"/><use transform="matrix(0.05,0,0,0.05,44.95,0)" xlink:href="#J"/></g><path d="M232-93c-1 65-40 97-104 97C67 4 28-28 28-90v-158h33c8 89-33 224 67 224 102 0 64-133 71-224h33v155" id="K"/><path d="M33 0v-248h34V0H33" id="L"/><g id="f"><use transform="matrix(0.05,0,0,0.05,0,0)" xlink:href="#K"/><use transform="matrix(0.05,0,0,0.05,12.950000000000001,0)" xlink:href="#L"/></g><path d="M212-179c-10-28-35-45-73-45-59 0-87 40-87 99 0 60 29 101 89 101 43 0 62-24 78-52l27 14C228-24 195 4 139 4 59 4 22-46 18-125c-6-104 99-153 187-111 19 9 31 26 39 46" id="M"/><g id="g"><use transform="matrix(0.05,0,0,0.05,0,0)" xlink:href="#M"/><use transform="matrix(0.05,0,0,0.05,12.950000000000001,0)" xlink:href="#v"/><use transform="matrix(0.05,0,0,0.05,22.950000000000003,0)" xlink:href="#H"/><use transform="matrix(0.05,0,0,0.05,32.95,0)" xlink:href="#I"/></g><path d="M24-231v-30h32v30H24zM24 0v-190h32V0H24" id="N"/><g id="h"><use transform="matrix(0.05,0,0,0.05,0,0)" xlink:href="#M"/><use transform="matrix(0.05,0,0,0.05,12.950000000000001,0)" xlink:href="#v"/><use transform="matrix(0.05,0,0,0.05,22.950000000000003,0)" xlink:href="#w"/><use transform="matrix(0.05,0,0,0.05,32.95,0)" xlink:href="#w"/><use transform="matrix(0.05,0,0,0.05,42.95,0)" xlink:href="#I"/><use transform="matrix(0.05,0,0,0.05,52.95,0)" xlink:href="#A"/><use transform="matrix(0.05,0,0,0.05,61.95,0)" xlink:href="#x"/><use transform="matrix(0.05,0,0,0.05,66.95,0)" xlink:href="#N"/><use transform="matrix(0.05,0,0,0.05,70.9,0)" xlink:href="#v"/><use transform="matrix(0.05,0,0,0.05,80.9,0)" xlink:href="#w"/></g><path d="M210-169c-67 3-38 105-44 169h-31v-121c0-29-5-50-35-48C34-165 62-65 56 0H25l-1-190h30c1 10-1 24 2 32 10-44 99-50 107 0 11-21 27-35 58-36 85-2 47 119 55 194h-31v-121c0-29-5-49-35-48" id="O"/><path d="M177-190C167-65 218 103 67 71c-23-6-38-20-44-43l32-5c15 47 100 32 89-28v-30C133-14 115 1 83 1 29 1 15-40 15-95c0-56 16-97 71-98 29-1 48 16 59 35 1-10 0-23 2-32h30zM94-22c36 0 50-32 50-73 0-42-14-75-50-75-39 0-46 34-46 75s6 73 46 73" id="P"/><g id="i"><use transform="matrix(0.05,0,0,0.05,0,0)" xlink:href="#O"/><use transform="matrix(0.05,0,0,0.05,14.950000000000001,0)" xlink:href="#z"/><use transform="matrix(0.05,0,0,0.05,24.950000000000003,0)" xlink:href="#w"/><use transform="matrix(0.05,0,0,0.05,34.95,0)" xlink:href="#z"/><use transform="matrix(0.05,0,0,0.05,44.95,0)" xlink:href="#P"/><use transform="matrix(0.05,0,0,0.05,54.95,0)" xlink:href="#I"/><use transform="matrix(0.05,0,0,0.05,64.95,0)" xlink:href="#u"/></g><path d="M126-127c33 6 58 20 58 59 0 88-139 92-164 29-3-8-5-16-6-25l32-3c6 27 21 44 54 44 32 0 52-15 52-46 0-38-36-46-79-43v-28c39 1 72-4 72-42 0-27-17-43-46-43-28 0-47 15-49 41l-32-3c6-42 35-63 81-64 48-1 79 21 79 65 0 36-21 52-52 59" id="Q"/><use transform="matrix(0.05,0,0,0.05,0,0)" xlink:href="#Q" id="j"/><path d="M30-248c87 1 191-15 191 75 0 78-77 80-158 76V0H30v-248zm33 125c57 0 124 11 124-50 0-59-68-47-124-48v98" id="R"/><path d="M135-143c-3-34-86-38-87 0 15 53 115 12 119 90S17 21 10-45l28-5c4 36 97 45 98 0-10-56-113-15-118-90-4-57 82-63 122-42 12 7 21 19 24 35" id="S"/><g id="k"><use transform="matrix(0.05,0,0,0.05,0,0)" xlink:href="#R"/><use transform="matrix(0.05,0,0,0.05,12,0)" xlink:href="#u"/><use transform="matrix(0.05,0,0,0.05,17.95,0)" xlink:href="#v"/><use transform="matrix(0.05,0,0,0.05,27.950000000000003,0)" xlink:href="#A"/><use transform="matrix(0.05,0,0,0.05,36.95,0)" xlink:href="#I"/><use transform="matrix(0.05,0,0,0.05,46.95,0)" xlink:href="#S"/><use transform="matrix(0.05,0,0,0.05,55.95,0)" xlink:href="#S"/></g><path d="M84 4C-5 8 30-112 23-190h32v120c0 31 7 50 39 49 72-2 45-101 50-169h31l1 190h-30c-1-10 1-25-2-33-11 22-28 36-60 37" id="T"/><path d="M106-169C34-169 62-67 57 0H25v-261h32l-1 103c12-21 28-36 61-36 89 0 53 116 60 194h-32v-121c2-32-8-49-39-48" id="U"/><g id="l"><use transform="matrix(0.05,0,0,0.05,0,0)" xlink:href="#z"/><use transform="matrix(0.05,0,0,0.05,10,0)" xlink:href="#T"/><use transform="matrix(0.05,0,0,0.05,20,0)" xlink:href="#x"/><use transform="matrix(0.05,0,0,0.05,25,0)" xlink:href="#U"/></g><path d="M212-179c-10-28-35-45-73-45-59 0-87 40-87 99 0 60 29 101 89 101 43 0 62-24 78-52l27 14C228-24 195 4 139 4 59 4 22-46 18-125c-6-104 99-153 187-111 19 9 31 26 39 46" id="V"/><path d="M170-190V0h-32v-167H57V0H25v-190h145" id="W"/><path d="M56-190L54-37l88-153h34V0h-30l2-153L59 0H25v-190h31" id="X"/><path d="M96-169c-40 0-48 33-48 73s9 75 48 75c24 0 41-14 43-38l32 2c-6 37-31 61-74 61-59 0-76-41-82-99-10-93 101-131 147-64 4 7 5 14 7 22l-32 3c-4-21-16-35-41-35" id="Y"/><path d="M100-194c62-1 85 37 85 99 1 63-27 99-86 99S16-35 15-95c0-66 28-99 85-99zM99-20c44 1 53-31 53-75 0-43-8-75-51-75s-53 32-53 75 10 74 51 75" id="Z"/><path d="M75-87c-4 1-14 3-19 3V0H24v-190h32v83c26-2 31-21 43-41l26-42h33l-61 86L159 0h-35" id="aa"/><g id="m"><use transform="matrix(0.05,0,0,0.05,0,0)" xlink:href="#V"/><use transform="matrix(0.05,0,0,0.05,12.950000000000001,0)" xlink:href="#W"/><use transform="matrix(0.05,0,0,0.05,22.650000000000002,0)" xlink:href="#X"/><use transform="matrix(0.05,0,0,0.05,32.7,0)" xlink:href="#Y"/><use transform="matrix(0.05,0,0,0.05,41.900000000000006,0)" xlink:href="#Z"/><use transform="matrix(0.05,0,0,0.05,51.900000000000006,0)" xlink:href="#aa"/></g><path d="M105-20c41 1 53-27 53-68 0-40-9-69-50-69s-54 27-54 69c0 40 12 68 51 68zM47-134c10-28 31-47 68-47 56 0 76 33 76 92 1 60-28 90-86 93C-9 9 1-201 72-238c29-15 73-21 110-26v28c-67 12-144 10-135 102" id="ab"/><path d="M141-36C126-15 110 5 73 4 37 3 15-17 15-53c-1-64 63-63 125-63 3-35-9-54-41-54-24 1-41 7-42 31l-33-3c5-37 33-52 76-52 45 0 72 20 72 64v82c-1 20 7 32 28 27v20c-31 9-61-2-59-35zM48-53c0 20 12 33 32 33 41-3 63-29 60-74-43 2-92-5-92 41" id="ac"/><path d="M152-53C154 19 21 22 9-41l28-8c5 36 84 42 81-4-1-29-28-34-58-35v-24c28 0 55-4 55-30 0-19-14-29-34-28-20 0-35 7-38 25l-28-3c4-33 30-46 66-46 37 0 66 15 66 50 0 27-20 41-44 44 27 5 48 17 49 47" id="ad"/><g id="n"><use transform="matrix(0.05,0,0,0.05,0,0)" xlink:href="#ab"/><use transform="matrix(0.05,0,0,0.05,9.9,0)" xlink:href="#ac"/><use transform="matrix(0.05,0,0,0.05,19.700000000000003,0)" xlink:href="#ad"/></g><path d="M57-190v80h85v-80h32V0h-32v-87H57V0H25v-190h32" id="ae"/><g id="o"><use transform="matrix(0.05,0,0,0.05,0,0)" xlink:href="#ae"/><use transform="matrix(0.05,0,0,0.05,9.9,0)" xlink:href="#ac"/></g><path d="M100-194c63 0 86 42 84 106H49c0 40 14 67 53 68 26 1 43-12 49-29l28 8c-11 28-37 45-77 45C44 4 14-33 15-96c1-61 26-98 85-98zm52 81c6-60-76-77-97-28-3 7-6 17-6 28h103" id="af"/><path d="M115-194c55 1 70 41 70 98S169 2 115 4C84 4 66-9 55-30l1 105H24l-1-265h31l2 30c10-21 28-34 59-34zm-8 174c40 0 45-34 45-75s-6-73-45-74c-42 0-51 32-51 76 0 43 10 73 51 73" id="ag"/><path d="M176-55C176 11 93 0 25 0v-190c61 3 142-15 144 47 1 29-21 35-39 44 27 3 46 16 46 44zm-34 0c0-41-47-30-85-32v64c38-1 85 8 85-32zm-6-83c0-36-44-26-79-28v56c34-2 79 8 79-28" id="ah"/><g id="p"><use transform="matrix(0.05,0,0,0.05,0,0)" xlink:href="#Y"/><use transform="matrix(0.05,0,0,0.05,9,0)" xlink:href="#af"/><use transform="matrix(0.05,0,0,0.05,19,0)" xlink:href="#ag"/><use transform="matrix(0.05,0,0,0.05,29,0)" xlink:href="#ah"/><use transform="matrix(0.05,0,0,0.05,38.35,0)" xlink:href="#af"/><use transform="matrix(0.05,0,0,0.05,48.35,0)" xlink:href="#ag"/><use transform="matrix(0.05,0,0,0.05,58.35,0)" xlink:href="#af"/></g><path d="M27 0v-27h64v-190l-56 39v-29l58-41h29v221h61V0H27" id="ai"/><use transform="matrix(0.05,0,0,0.05,0,0)" xlink:href="#ai" id="q"/><path d="M155-56V0h-30v-56H8v-25l114-167h33v167h35v25h-35zm-30-156c-27 46-58 90-88 131h88v-131" id="aj"/><use transform="matrix(0.05,0,0,0.05,0,0)" xlink:href="#aj" id="r"/><path d="M101-251c82-7 93 87 43 132L82-64C71-53 59-42 53-27h129V0H18c2-99 128-94 128-182 0-28-16-43-45-43s-46 15-49 41l-32-3c6-41 34-60 81-64" id="ak"/><use transform="matrix(0.05,0,0,0.05,0,0)" xlink:href="#ak" id="s"/></defs></g></svg>