<svg xmlns="http://www.w3.org/2000/svg" xmlns:xlink="http://www.w3.org/1999/xlink" xmlns:lucid="lucid" width="1142" height="497.7"><g transform="translate(-20 3824.5)" lucid:page-tab-id="0_0"><g class="lucid-layer" lucid:layer-id="zMz9j7YK_hOt" display="block"><path d="M40-3804.5h560v456H40z" stroke="#000" stroke-width="2" fill="#c7e8ac"/><path d="M60-3757h240v208.5H60z" stroke="#000" stroke-width="2" fill="#c1e4f7"/><path d="M80-3718.5h160v53.2H80z" stroke="#000" stroke-width="2" fill="#fff"/><use xlink:href="#a" transform="matrix(1,0,0,1,85,-3713.5) translate(6.474999999999994 25.6)"/><use xlink:href="#b" transform="matrix(1,0,0,1,85,-3713.5) translate(67.175 25.6)"/><path d="M200-3658.5c0 11.05-8.95 20-20 20s-20-8.95-20-20 8.95-20 20-20 20 8.95 20 20z" stroke="#000" stroke-width="2" fill="#ffeca9"/><use xlink:href="#c" transform="matrix(1,0,0,1,165,-3673.5) translate(10 18.6)"/><path d="M40-3804.5h180v40H40z" stroke="#000" stroke-opacity="0" stroke-width="2" fill="#fff" fill-opacity="0"/><use xlink:href="#d" transform="matrix(1,0,0,1,45,-3799.5) translate(6.150000000000006 18.6)"/><path d="M60-3757h180v40H60z" stroke="#000" stroke-opacity="0" stroke-width="2" fill="#fff" fill-opacity="0"/><use xlink:href="#e" transform="matrix(1,0,0,1,65,-3752) translate(14.599999999999994 18.6)"/><use xlink:href="#f" transform="matrix(1,0,0,1,65,-3752) translate(79.35 18.6)"/><path d="M400-3788.5h180v423H400z" stroke="#000" stroke-width="2" fill="#d1bcd2"/><path d="M241-3691.9h149.76" stroke="#000" stroke-width="2" fill="none"/><path d="M241-3690.9h-1v-2h1zM405.76-3691.9l-14.26 4.64v-9.28z"/><path d="M409-3691.9l-18.5 6v-12zm-16.5 3.26l10.03-3.26-10.03-3.26z"/><path d="M400-3788.5h180v40H400z" stroke="#000" stroke-opacity="0" stroke-width="2" fill="#fff" fill-opacity="0"/><use xlink:href="#g" transform="matrix(1,0,0,1,405,-3783.5) translate(10.349999999999994 18.6)"/><use xlink:href="#h" transform="matrix(1,0,0,1,405,-3783.5) translate(64.95 18.6)"/><use xlink:href="#i" transform="matrix(1,0,0,1,405,-3783.5) translate(78.95 18.6)"/><path d="M410-3739.5h160v183H410z" stroke="#000" stroke-width="2" fill="#f5b5c8"/><path d="M410-3735.9h90v27.4h-90z" stroke="#000" stroke-opacity="0" stroke-width="2" fill="#fff" fill-opacity="0"/><use xlink:href="#j" transform="matrix(1,0,0,1,415,-3730.9) translate(8.024999999999999 14.4)"/><use xlink:href="#k" transform="matrix(1,0,0,1,415,-3730.9) translate(61.975 14.4)"/><path d="M440-3698.5h100v40H440z" stroke="#000" stroke-width="2" fill="#fff"/><use xlink:href="#l" transform="matrix(1,0,0,1,445,-3693.5) translate(5.549999999999997 18.6)"/><path d="M280-3755.9c0 11.05-8.95 20-20 20s-20-8.95-20-20 8.95-20 20-20 20 8.95 20 20z" stroke="#000" stroke-width="2" fill="#ffeca9"/><use xlink:href="#m" transform="matrix(1,0,0,1,245,-3770.9) translate(10 18.6)"/><path d="M360-3691.9c0 11.05-8.95 20-20 20s-20-8.95-20-20 8.95-20 20-20 20 8.95 20 20z" stroke="#000" stroke-width="2" fill="#ffeca9"/><use xlink:href="#n" transform="matrix(1,0,0,1,325,-3706.9) translate(10 18.6)"/><path d="M560-3648.5c0 11.05-8.95 20-20 20s-20-8.95-20-20 8.95-20 20-20 20 8.95 20 20z" stroke="#000" stroke-width="2" fill="#ffeca9"/><use xlink:href="#o" transform="matrix(1,0,0,1,525,-3663.5) translate(10 18.6)"/><path d="M720-3802.8h422v456H720z" stroke="#000" stroke-width="2" fill="#c7e8ac"/><path d="M720-3804.5h120v40H720z" stroke="#000" stroke-opacity="0" stroke-width="2" fill="#fff" fill-opacity="0"/><use xlink:href="#p" transform="matrix(1,0,0,1,725,-3799.5) translate(10.549999999999997 18.6)"/><path d="M740-3764.5h180v399H740z" stroke="#000" stroke-width="2" fill="#d1bcd2"/><path d="M750-3748.5h160v192H750z" stroke="#000" stroke-width="2" fill="#f5b5c8"/><path d="M581-3648h149.76" stroke="#000" stroke-width="2" fill="none"/><path d="M581-3647h-1v-2h1zM745.76-3648l-14.26 4.64v-9.28z"/><path d="M749-3648l-18.5 6v-12zm-16.5 3.26l10.03-3.26-10.03-3.26z"/><path d="M760-3705.3h100v40H760z" stroke="#000" stroke-width="2" fill="#fff"/><use xlink:href="#l" transform="matrix(1,0,0,1,765,-3700.3) translate(5.549999999999997 18.6)"/><path d="M750-3744.4h90v27.4h-90z" stroke="#000" stroke-opacity="0" stroke-width="2" fill="#fff" fill-opacity="0"/><use xlink:href="#j" transform="matrix(1,0,0,1,755,-3739.4) translate(8.024999999999999 14.4)"/><use xlink:href="#k" transform="matrix(1,0,0,1,755,-3739.4) translate(61.975 14.4)"/><path d="M680-3652.75c0 11.05-8.95 20-20 20s-20-8.95-20-20 8.95-20 20-20 20 8.95 20 20z" stroke="#000" stroke-width="2" fill="#ffeca9"/><use xlink:href="#q" transform="matrix(1,0,0,1,645,-3667.75) translate(10 18.6)"/><path d="M571-3707.73h70.76" stroke="#000" stroke-width="2" fill="none"/><path d="M571-3706.73h-1v-2h1zM656.76-3707.73l-14.26 4.64v-9.26z"/><path d="M660-3707.73l-18.5 6v-12zm-16.5 3.26l10.03-3.26-10.03-3.26z"/><path d="M660-3718.95h40v24.5h-40z" stroke="#000" stroke-opacity="0" stroke-width="2" fill="#fff" fill-opacity="0"/><use xlink:href="#r" transform="matrix(1,0,0,1,665,-3713.9500000000003) translate(9 14.4)"/><path d="M620-3708.5c0 11.05-8.95 20-20 20s-20-8.95-20-20 8.95-20 20-20 20 8.95 20 20z" stroke="#000" stroke-width="2" fill="#ffeca9"/><use xlink:href="#s" transform="matrix(1,0,0,1,585,-3723.5) translate(10 18.6)"/><path d="M60-3518.5h240v153H60z" stroke="#000" stroke-width="2" fill="#c1e4f7"/><path d="M60-3518.5h100v40H60z" stroke="#000" stroke-opacity="0" stroke-width="2" fill="#fff" fill-opacity="0"/><use xlink:href="#t" transform="matrix(1,0,0,1,64.99999999999997,-3513.5) translate(14.725000000000001 18.6)"/><path d="M410-3502h160v120H410z" stroke="#000" stroke-width="2" fill="#f5b5c8"/><path d="M410-3498.5h90v27.4h-90z" stroke="#000" stroke-opacity="0" stroke-width="2" fill="#fff" fill-opacity="0"/><use xlink:href="#j" transform="matrix(1,0,0,1,415,-3493.5) translate(8.024999999999999 14.4)"/><use xlink:href="#u" transform="matrix(1,0,0,1,415,-3493.5) translate(61.975 14.4)"/><path d="M440-3438.5h100v40H440z" stroke="#000" stroke-width="2" fill="#fff"/><use xlink:href="#l" transform="matrix(1,0,0,1,445,-3433.5) translate(5.549999999999997 18.6)"/><path d="M80-3468.6h160v53.2H80z" stroke="#000" stroke-width="2" fill="#fff"/><use xlink:href="#v" transform="matrix(1,0,0,1,85,-3463.6) translate(46 25.6)"/><path d="M241-3442h149.76" stroke="#000" stroke-width="2" fill="none"/><path d="M241-3441h-1v-2h1zM405.76-3442l-14.26 4.64v-9.28z"/><path d="M409-3442l-18.5 6v-12zm-16.5 3.26l10.03-3.26-10.03-3.26z"/><path d="M291-3491.1c0 11.05-8.95 20-20 20s-20-8.95-20-20 8.95-20 20-20 20 8.95 20 20z" stroke="#000" stroke-width="2" fill="#ffeca9"/><use xlink:href="#w" transform="matrix(1,0,0,1,256,-3506.1) translate(10 18.6)"/><path d="M750-3500h160v120H750z" stroke="#000" stroke-width="2" fill="#f5b5c8"/><path d="M750-3502h90v27.4h-90z" stroke="#000" stroke-opacity="0" stroke-width="2" fill="#fff" fill-opacity="0"/><use xlink:href="#j" transform="matrix(1,0,0,1,755,-3497) translate(8.024999999999999 14.4)"/><use xlink:href="#u" transform="matrix(1,0,0,1,755,-3497) translate(61.975 14.4)"/><path d="M780-3458.5h100v40H780z" stroke="#000" stroke-width="2" fill="#fff"/><use xlink:href="#l" transform="matrix(1,0,0,1,785,-3453.5) translate(5.549999999999997 18.6)"/><path d="M571-3442h159.76" stroke="#000" stroke-width="2" fill="none"/><path d="M571-3441h-1v-2h1zM745.76-3442l-14.26 4.64v-9.28z"/><path d="M749-3442l-18.5 6v-12zm-16.5 3.26l10.03-3.26-10.03-3.26z"/><path d="M680-3448.6c0 11.05-8.95 20-20 20s-20-8.95-20-20 8.95-20 20-20 20 8.95 20 20z" stroke="#000" stroke-width="2" fill="#ffeca9"/><use xlink:href="#x" transform="matrix(1,0,0,1,645,-3463.6) translate(10 18.6)"/><path d="M1120-3725.18c0 3.7-17.9 6.68-40 6.68s-40-3-40-6.68v-53.44c0-3.7 17.9-6.68 40-6.68s40 3 40 6.68z" stroke="#000" stroke-width="2" fill="#fff"/><path d="M1120-3778.62c0 3.7-17.9 6.68-40 6.68s-40-3-40-6.68" stroke="#000" stroke-width="2" fill="none"/><use xlink:href="#y" transform="matrix(1,0,0,1,1045,-3766.94) translate(16.049999999999997 25.6)"/><path d="M880-3529.1c0 11.05-8.95 20-20 20s-20-8.95-20-20 8.95-20 20-20 20 8.95 20 20z" stroke="#000" stroke-width="2" fill="#ffeca9"/><use xlink:href="#z" transform="matrix(1,0,0,1,845,-3544.1) translate(10 18.6)"/><path d="M960-3642.8h160v120H960z" stroke="#000" stroke-width="2" fill="#5abaa7"/><use xlink:href="#A" transform="matrix(1,0,0,1,965,-3637.8) translate(42.5 58.6)"/><path d="M1080-3662.04v-37.22" stroke="#000" stroke-width="2" fill="none"/><path d="M1080-3647.04l-4.64-14.26h9.28z"/><path d="M1080-3643.8l-6-18.5h12zm-3.26-16.5l3.26 10.03 3.26-10.03zM1084.64-3700h-9.28l4.64-14.26z"/><path d="M1086-3699h-12l6-18.5zm-9.26-2h6.52l-3.26-10.03z"/><path d="M1108-3549.1c0 11.05-8.95 20-20 20s-20-8.95-20-20 8.95-20 20-20 20 8.95 20 20z" stroke="#000" stroke-width="2" fill="#ffeca9"/><use xlink:href="#B" transform="matrix(1,0,0,1,1073,-3564.1) translate(5 18.6)"/><path d="M911-3717.83h105v55.8" stroke="#000" stroke-width="2" fill="none"/><path d="M911-3716.83h-1v-2h1zM1016-3647.04l-4.64-14.26h9.28z"/><path d="M1016-3643.8l-6-18.5h12zm-3.26-16.5l3.26 10.03 3.26-10.03z"/><path d="M911-3440h24v-96.5h5.76" stroke="#000" stroke-width="2" fill="none"/><path d="M911-3439h-1v-2h1zM955.76-3536.5l-14.26 4.64v-9.28z"/><path d="M959-3536.5l-18.5 6v-12zm-16.5 3.26l10.03-3.26-10.03-3.26z"/><path d="M990.67-3643.8v-8.7h-61.43" stroke="#000" stroke-width="2" fill="none"/><path d="M992.63-3642.8h-2.47l-.3-.4 1.62-1.2zM928.5-3647.86l-14.26-4.64 14.26-4.64z"/><path d="M929.5-3646.5l-18.5-6 18.5-6zm-12.03-6l10.03 3.26v-6.52z"/><path d="M749-3594.67H589.24" stroke="#000" stroke-width="2" fill="none"/><path d="M750-3593.67h-1v-2h1zM588.5-3590.03l-14.26-4.64 14.26-4.63z"/><path d="M589.5-3588.65l-18.5-6.02 18.5-6zm-12.03-6.02l10.03 3.26v-6.53z"/><path d="M680-3591.05c0 11.05-8.95 20-20 20s-20-8.95-20-20 8.95-20 20-20 20 8.95 20 20z" stroke="#000" stroke-width="2" fill="#ffeca9"/><use xlink:href="#C" transform="matrix(1,0,0,1,645,-3606.0499999999997) translate(5.675000000000001 18.6)"/><path d="M440-3620h100v40H440z" fill="#fff"/><path d="M452.5-3620h8.33m8.34 0h8.33m8.33 0h8.34m8.33 0h8.33m8.34 0h8.33m8.33 0H540v3.33m0 6.67v6.67m0 6.66v6.67m0 6.67v3.33h-4.17m-8.33 0h-8.33m-8.34 0h-8.33m-8.33 0h-8.34m-8.33 0h-8.33m-8.34 0h-8.33m-8.33 0H440v-3.33m0-6.67v-6.67m0-6.66v-6.67m0-6.67v-3.33h4.17" stroke="#000" stroke-width="2" fill="none"/><use xlink:href="#D" transform="matrix(1,0,0,1,445,-3615) translate(7.549999999999997 18.6)"/><path d="M439-3600H259.24" stroke="#000" stroke-width="2" fill="none"/><path d="M440-3599h-1v-2h1zM258.5-3595.36l-14.26-4.64 14.26-4.64z"/><path d="M259.5-3594l-18.5-6 18.5-6zm-12.03-6l10.03 3.26v-6.52z"/><path d="M380-3600c0 11.05-8.95 20-20 20s-20-8.95-20-20 8.95-20 20-20 20 8.95 20 20z" stroke="#000" stroke-width="2" fill="#ffeca9"/><g><use xlink:href="#E" transform="matrix(1,0,0,1,345,-3615) translate(5 18.6)"/></g><path d="M80-3632.75h160v76.25H80z" fill="#fff"/><path d="M92-3632.75h8m8 0h8m8 0h8m8 0h8m8 0h8m8 0h8m8 0h8m8 0h8m8 0h8m8 0h4v3.8m0 7.64v7.6m0 7.64v7.62m0 7.63v7.6m0 7.64v7.62m0 7.63v3.8h-4m-8 0h-8m-8 0h-8m-8 0h-8m-8 0h-8m-8 0h-8m-8 0h-8m-8 0h-8m-8 0h-8m-8 0h-8m-8 0h-4v-3.8m0-7.64v-7.62m0-7.63v-7.6m0-7.64v-7.62m0-7.63v-7.6m0-7.64v-3.8h4" stroke="#000" stroke-width="2" fill="none"/><g><use xlink:href="#F" transform="matrix(1,0,0,1,85,-3627.75) translate(9.150000000000006 37.1)"/><use xlink:href="#h" transform="matrix(1,0,0,1,85,-3627.75) translate(51.25000000000001 37.1)"/><use xlink:href="#G" transform="matrix(1,0,0,1,85,-3627.75) translate(65.25 37.1)"/></g></g><defs><path d="M75-87c-4 1-14 3-19 3V0H24v-190h32v83c26-2 31-21 43-41l26-42h33l-61 86L159 0h-35" id="H"/><path d="M57-190v80h85v-80h32V0h-32v-87H57V0H25v-190h32" id="I"/><path d="M100-194c62-1 85 37 85 99 1 63-27 99-86 99S16-35 15-95c0-66 28-99 85-99zM99-20c44 1 53-31 53-75 0-43-8-75-51-75s-53 32-53 75 10 74 51 75" id="J"/><path d="M170-190V0h-32v-167H57V0H25v-190h145" id="K"/><path d="M141-36C126-15 110 5 73 4 37 3 15-17 15-53c-1-64 63-63 125-63 3-35-9-54-41-54-24 1-41 7-42 31l-33-3c5-37 33-52 76-52 45 0 72 20 72 64v82c-1 20 7 32 28 27v20c-31 9-61-2-59-35zM48-53c0 20 12 33 32 33 41-3 63-29 60-74-43 2-92-5-92 41" id="L"/><g id="a"><use transform="matrix(0.05,0,0,0.05,0,0)" xlink:href="#H"/><use transform="matrix(0.05,0,0,0.05,7.8500000000000005,0)" xlink:href="#I"/><use transform="matrix(0.05,0,0,0.05,17.75,0)" xlink:href="#J"/><use transform="matrix(0.05,0,0,0.05,27.75,0)" xlink:href="#K"/><use transform="matrix(0.05,0,0,0.05,37.45,0)" xlink:href="#H"/><use transform="matrix(0.05,0,0,0.05,45.7,0)" xlink:href="#L"/></g><path d="M197 0v-219H63V0H30v-248h201V0h-34" id="M"/><path d="M152-53C154 19 21 22 9-41l28-8c5 36 84 42 81-4-1-29-28-34-58-35v-24c28 0 55-4 55-30 0-19-14-29-34-28-20 0-35 7-38 25l-28-3c4-33 30-46 66-46 37 0 66 15 66 50 0 27-20 41-44 44 27 5 48 17 49 47" id="N"/><path d="M6-190h153v23H98V0H67v-167H6v-23" id="O"/><path d="M173-56C173 11 92 0 25 0v-190h32v80c58-2 117-2 116 54zm-34 0c0-39-44-31-82-32v66c39 0 82 6 82-34" id="P"/><g id="b"><use transform="matrix(0.05,0,0,0.05,0,0)" xlink:href="#M"/><use transform="matrix(0.05,0,0,0.05,12.9,0)" xlink:href="#J"/><use transform="matrix(0.05,0,0,0.05,22.9,0)" xlink:href="#H"/><use transform="matrix(0.05,0,0,0.05,31.149999999999995,0)" xlink:href="#L"/><use transform="matrix(0.05,0,0,0.05,40.95,0)" xlink:href="#N"/><use transform="matrix(0.05,0,0,0.05,49.2,0)" xlink:href="#L"/><use transform="matrix(0.05,0,0,0.05,58.800000000000004,0)" xlink:href="#O"/><use transform="matrix(0.05,0,0,0.05,67,0)" xlink:href="#P"/></g><path d="M101-251c82-7 93 87 43 132L82-64C71-53 59-42 53-27h129V0H18c2-99 128-94 128-182 0-28-16-43-45-43s-46 15-49 41l-32-3c6-41 34-60 81-64" id="Q"/><use transform="matrix(0.05,0,0,0.05,0,0)" xlink:href="#Q" id="c"/><path d="M160-131c35 5 61 23 61 61C221 17 115-2 30 0v-248c76 3 177-17 177 60 0 33-19 50-47 57zm-97-11c50-1 110 9 110-42 0-47-63-36-110-37v79zm0 115c55-2 124 14 124-45 0-56-70-42-124-44v89" id="R"/><path d="M114-163C36-179 61-72 57 0H25l-1-190h30c1 12-1 29 2 39 6-27 23-49 58-41v29" id="S"/><path d="M100-194c62-1 85 37 85 99 1 63-27 99-86 99S16-35 15-95c0-66 28-99 85-99zM99-20c44 1 53-31 53-75 0-43-8-75-51-75s-53 32-53 75 10 74 51 75" id="T"/><path d="M206 0h-36l-40-164L89 0H53L-1-190h32L70-26l43-164h34l41 164 42-164h31" id="U"/><path d="M135-143c-3-34-86-38-87 0 15 53 115 12 119 90S17 21 10-45l28-5c4 36 97 45 98 0-10-56-113-15-118-90-4-57 82-63 122-42 12 7 21 19 24 35" id="V"/><path d="M100-194c63 0 86 42 84 106H49c0 40 14 67 53 68 26 1 43-12 49-29l28 8c-11 28-37 45-77 45C44 4 14-33 15-96c1-61 26-98 85-98zm52 81c6-60-76-77-97-28-3 7-6 17-6 28h103" id="W"/><path d="M0 4l72-265h28L28 4H0" id="X"/><path d="M177-190C167-65 218 103 67 71c-23-6-38-20-44-43l32-5c15 47 100 32 89-28v-30C133-14 115 1 83 1 29 1 15-40 15-95c0-56 16-97 71-98 29-1 48 16 59 35 1-10 0-23 2-32h30zM94-22c36 0 50-32 50-73 0-42-14-75-50-75-39 0-46 34-46 75s6 73 46 73" id="Y"/><path d="M85-194c31 0 48 13 60 33l-1-100h32l1 261h-30c-2-10 0-23-3-31C134-8 116 4 85 4 32 4 16-35 15-94c0-66 23-100 70-100zm9 24c-40 0-46 34-46 75 0 40 6 74 45 74 42 0 51-32 51-76 0-42-9-74-50-73" id="Z"/><path d="M210-169c-67 3-38 105-44 169h-31v-121c0-29-5-50-35-48C34-165 62-65 56 0H25l-1-190h30c1 10-1 24 2 32 10-44 99-50 107 0 11-21 27-35 58-36 85-2 47 119 55 194h-31v-121c0-29-5-49-35-48" id="aa"/><path d="M117-194c89-4 53 116 60 194h-32v-121c0-31-8-49-39-48C34-167 62-67 57 0H25l-1-190h30c1 10-1 24 2 32 11-22 29-35 61-36" id="ab"/><path d="M16-82v-28h88v28H16" id="ac"/><path d="M101-234c-31-9-42 10-38 44h38v23H63V0H32v-167H5v-23h27c-7-52 17-82 69-68v24" id="ad"/><path d="M59-47c-2 24 18 29 38 22v24C64 9 27 4 27-40v-127H5v-23h24l9-43h21v43h35v23H59v120" id="ae"/><g id="d"><use transform="matrix(0.05,0,0,0.05,0,0)" xlink:href="#R"/><use transform="matrix(0.05,0,0,0.05,12,0)" xlink:href="#S"/><use transform="matrix(0.05,0,0,0.05,17.95,0)" xlink:href="#T"/><use transform="matrix(0.05,0,0,0.05,27.950000000000003,0)" xlink:href="#U"/><use transform="matrix(0.05,0,0,0.05,40.9,0)" xlink:href="#V"/><use transform="matrix(0.05,0,0,0.05,49.9,0)" xlink:href="#W"/><use transform="matrix(0.05,0,0,0.05,59.900000000000006,0)" xlink:href="#S"/><use transform="matrix(0.05,0,0,0.05,65.85,0)" xlink:href="#X"/><use transform="matrix(0.05,0,0,0.05,70.85,0)" xlink:href="#Y"/><use transform="matrix(0.05,0,0,0.05,80.85,0)" xlink:href="#Z"/><use transform="matrix(0.05,0,0,0.05,90.85,0)" xlink:href="#aa"/><use transform="matrix(0.05,0,0,0.05,105.80000000000001,0)" xlink:href="#ab"/><use transform="matrix(0.05,0,0,0.05,115.80000000000001,0)" xlink:href="#ac"/><use transform="matrix(0.05,0,0,0.05,121.75,0)" xlink:href="#ad"/><use transform="matrix(0.05,0,0,0.05,126.75,0)" xlink:href="#S"/><use transform="matrix(0.05,0,0,0.05,132.7,0)" xlink:href="#T"/><use transform="matrix(0.05,0,0,0.05,142.7,0)" xlink:href="#ab"/><use transform="matrix(0.05,0,0,0.05,152.7,0)" xlink:href="#ae"/></g><path d="M212-179c-10-28-35-45-73-45-59 0-87 40-87 99 0 60 29 101 89 101 43 0 62-24 78-52l27 14C228-24 195 4 139 4 59 4 22-46 18-125c-6-104 99-153 187-111 19 9 31 26 39 46" id="af"/><path d="M56-190L54-37l88-153h34V0h-30l2-153L59 0H25v-190h31" id="ag"/><path d="M96-169c-40 0-48 33-48 73s9 75 48 75c24 0 41-14 43-38l32 2c-6 37-31 61-74 61-59 0-76-41-82-99-10-93 101-131 147-64 4 7 5 14 7 22l-32 3c-4-21-16-35-41-35" id="ah"/><g id="e"><use transform="matrix(0.05,0,0,0.05,0,0)" xlink:href="#af"/><use transform="matrix(0.05,0,0,0.05,12.950000000000001,0)" xlink:href="#K"/><use transform="matrix(0.05,0,0,0.05,22.650000000000002,0)" xlink:href="#ag"/><use transform="matrix(0.05,0,0,0.05,32.7,0)" xlink:href="#ah"/><use transform="matrix(0.05,0,0,0.05,41.900000000000006,0)" xlink:href="#J"/><use transform="matrix(0.05,0,0,0.05,51.900000000000006,0)" xlink:href="#H"/></g><path d="M153 0v-167H87C74-108 81-27 38 0 29 5 12 6 2 1v-22c51 4 39-64 49-112 5-25 4-25 8-57h126V0h-32" id="ai"/><path d="M100-194c63 0 86 42 84 106H49c0 40 14 67 53 68 26 1 43-12 49-29l28 8c-11 28-37 45-77 45C44 4 14-33 15-96c1-61 26-98 85-98zm52 81c6-60-76-77-97-28-3 7-6 17-6 28h103" id="aj"/><path d="M176-55C176 11 93 0 25 0v-190c61 3 142-15 144 47 1 29-21 35-39 44 27 3 46 16 46 44zm-34 0c0-41-47-30-85-32v64c38-1 85 8 85-32zm-6-83c0-36-44-26-79-28v56c34-2 79 8 79-28" id="ak"/><g id="f"><use transform="matrix(0.05,0,0,0.05,0,0)" xlink:href="#H"/><use transform="matrix(0.05,0,0,0.05,8.05,0)" xlink:href="#ai"/><use transform="matrix(0.05,0,0,0.05,18.55,0)" xlink:href="#ag"/><use transform="matrix(0.05,0,0,0.05,28.6,0)" xlink:href="#aj"/><use transform="matrix(0.05,0,0,0.05,38.6,0)" xlink:href="#I"/><use transform="matrix(0.05,0,0,0.05,48.5,0)" xlink:href="#O"/><use transform="matrix(0.05,0,0,0.05,56.5,0)" xlink:href="#J"/><use transform="matrix(0.05,0,0,0.05,66.5,0)" xlink:href="#ak"/></g><path d="M20-138c-1-64 85-51 150-52V0h-32v-81H94L39 0H3l60-83c-28-5-43-24-43-55zm33 3c0 40 46 33 85 33v-66c-39 0-85-6-85 33" id="al"/><g id="g"><use transform="matrix(0.05,0,0,0.05,0,0)" xlink:href="#af"/><use transform="matrix(0.05,0,0,0.05,12.950000000000001,0)" xlink:href="#ak"/><use transform="matrix(0.05,0,0,0.05,22.300000000000004,0)" xlink:href="#al"/><use transform="matrix(0.05,0,0,0.05,32.00000000000001,0)" xlink:href="#N"/><use transform="matrix(0.05,0,0,0.05,40.25000000000001,0)" xlink:href="#P"/></g><use transform="matrix(0.05,0,0,0.05,0,0)" xlink:href="#ah" id="h"/><path d="M115-194c55 1 70 41 70 98S169 2 115 4C84 4 66-9 55-30l1 105H24l-1-265h31l2 30c10-21 28-34 59-34zm-8 174c40 0 45-34 45-75s-6-73-45-74c-42 0-51 32-51 76 0 43 10 73 51 73" id="am"/><path d="M138 0h-27L54-167c3 53 2 111 2 167H25v-190h49c16 56 39 106 51 166 11-61 34-110 50-166h48V0h-31l2-168" id="an"/><g id="i"><use transform="matrix(0.05,0,0,0.05,0,0)" xlink:href="#ah"/><use transform="matrix(0.05,0,0,0.05,9,0)" xlink:href="#aj"/><use transform="matrix(0.05,0,0,0.05,19,0)" xlink:href="#am"/><use transform="matrix(0.05,0,0,0.05,29,0)" xlink:href="#ak"/><use transform="matrix(0.05,0,0,0.05,38.35,0)" xlink:href="#aj"/><use transform="matrix(0.05,0,0,0.05,48.35,0)" xlink:href="#am"/><use transform="matrix(0.05,0,0,0.05,58.35,0)" xlink:href="#J"/><use transform="matrix(0.05,0,0,0.05,68.35,0)" xlink:href="#an"/></g><path d="M140-251c81 0 123 46 123 126C263-53 228-8 163 1c7 30 30 48 69 40v23c-55 16-95-15-103-61C56-3 17-48 17-125c0-80 42-126 123-126zm0 227c63 0 89-41 89-101s-29-99-89-99c-61 0-89 39-89 99S79-25 140-24" id="ao"/><path d="M84 4C-5 8 30-112 23-190h32v120c0 31 7 50 39 49 72-2 45-101 50-169h31l1 190h-30c-1-10 1-25-2-33-11 22-28 36-60 37" id="ap"/><path d="M179-190L93 31C79 59 56 82 12 73V49c39 6 53-20 64-50L1-190h34L92-34l54-156h33" id="aq"/><g id="j"><use transform="matrix(0.05,0,0,0.05,0,0)" xlink:href="#ao"/><use transform="matrix(0.05,0,0,0.05,14,0)" xlink:href="#ap"/><use transform="matrix(0.05,0,0,0.05,24,0)" xlink:href="#W"/><use transform="matrix(0.05,0,0,0.05,34,0)" xlink:href="#S"/><use transform="matrix(0.05,0,0,0.05,39.95,0)" xlink:href="#aq"/></g><path d="M27 0v-27h64v-190l-56 39v-29l58-41h29v221h61V0H27" id="ar"/><use transform="matrix(0.05,0,0,0.05,0,0)" xlink:href="#ar" id="k"/><path d="M96-169c-40 0-48 33-48 73s9 75 48 75c24 0 41-14 43-38l32 2c-6 37-31 61-74 61-59 0-76-41-82-99-10-93 101-131 147-64 4 7 5 14 7 22l-32 3c-4-21-16-35-41-35" id="as"/><path d="M141-36C126-15 110 5 73 4 37 3 15-17 15-53c-1-64 63-63 125-63 3-35-9-54-41-54-24 1-41 7-42 31l-33-3c5-37 33-52 76-52 45 0 72 20 72 64v82c-1 20 7 32 28 27v20c-31 9-61-2-59-35zM48-53c0 20 12 33 32 33 41-3 63-29 60-74-43 2-92-5-92 41" id="at"/><g id="l"><use transform="matrix(0.05,0,0,0.05,0,0)" xlink:href="#as"/><use transform="matrix(0.05,0,0,0.05,9,0)" xlink:href="#T"/><use transform="matrix(0.05,0,0,0.05,19,0)" xlink:href="#aa"/><use transform="matrix(0.05,0,0,0.05,33.95,0)" xlink:href="#aa"/><use transform="matrix(0.05,0,0,0.05,48.900000000000006,0)" xlink:href="#at"/><use transform="matrix(0.05,0,0,0.05,58.900000000000006,0)" xlink:href="#ab"/><use transform="matrix(0.05,0,0,0.05,68.9,0)" xlink:href="#Z"/></g><use transform="matrix(0.05,0,0,0.05,0,0)" xlink:href="#ar" id="m"/><path d="M126-127c33 6 58 20 58 59 0 88-139 92-164 29-3-8-5-16-6-25l32-3c6 27 21 44 54 44 32 0 52-15 52-46 0-38-36-46-79-43v-28c39 1 72-4 72-42 0-27-17-43-46-43-28 0-47 15-49 41l-32-3c6-42 35-63 81-64 48-1 79 21 79 65 0 36-21 52-52 59" id="au"/><use transform="matrix(0.05,0,0,0.05,0,0)" xlink:href="#au" id="n"/><path d="M155-56V0h-30v-56H8v-25l114-167h33v167h35v25h-35zm-30-156c-27 46-58 90-88 131h88v-131" id="av"/><use transform="matrix(0.05,0,0,0.05,0,0)" xlink:href="#av" id="o"/><path d="M115-194c53 0 69 39 70 98 0 66-23 100-70 100C84 3 66-7 56-30L54 0H23l1-261h32v101c10-23 28-34 59-34zm-8 174c40 0 45-34 45-75 0-40-5-75-45-74-42 0-51 32-51 76 0 43 10 73 51 73" id="aw"/><path d="M143 0L79-87 56-68V0H24v-261h32v163l83-92h37l-77 82L181 0h-38" id="ax"/><g id="p"><use transform="matrix(0.05,0,0,0.05,0,0)" xlink:href="#Y"/><use transform="matrix(0.05,0,0,0.05,10,0)" xlink:href="#Z"/><use transform="matrix(0.05,0,0,0.05,20,0)" xlink:href="#aa"/><use transform="matrix(0.05,0,0,0.05,34.95,0)" xlink:href="#ab"/><use transform="matrix(0.05,0,0,0.05,44.95,0)" xlink:href="#ac"/><use transform="matrix(0.05,0,0,0.05,50.900000000000006,0)" xlink:href="#aw"/><use transform="matrix(0.05,0,0,0.05,60.900000000000006,0)" xlink:href="#at"/><use transform="matrix(0.05,0,0,0.05,70.9,0)" xlink:href="#as"/><use transform="matrix(0.05,0,0,0.05,79.9,0)" xlink:href="#ax"/></g><path d="M54-142c48-35 137-8 131 61C196 18 31 33 14-55l32-4c7 23 22 37 52 37 35-1 51-22 54-58 4-55-73-65-99-34H22l8-134h141v27H59" id="ay"/><use transform="matrix(0.05,0,0,0.05,0,0)" xlink:href="#ay" id="q"/><path d="M195 0l-74-108L45 0H8l94-129-87-119h37l69 98 67-98h37l-84 118L233 0h-38" id="az"/><use transform="matrix(0.05,0,0,0.05,0,0)" xlink:href="#az" id="r"/><path d="M110-160c48 1 74 30 74 79 0 53-28 85-80 85-65 0-83-55-86-122-5-90 50-162 133-122 14 7 22 21 27 39l-31 6c-5-40-67-38-82-6-9 19-15 44-15 74 11-20 30-34 60-33zm-7 138c34 0 49-23 49-58s-16-56-50-56c-29 0-50 16-49 49 1 36 15 65 50 65" id="aA"/><use transform="matrix(0.05,0,0,0.05,0,0)" xlink:href="#aA" id="s"/><g id="t"><use transform="matrix(0.05,0,0,0.05,0,0)" xlink:href="#af"/><use transform="matrix(0.05,0,0,0.05,12.950000000000001,0)" xlink:href="#aj"/><use transform="matrix(0.05,0,0,0.05,22.950000000000003,0)" xlink:href="#am"/><use transform="matrix(0.05,0,0,0.05,32.95,0)" xlink:href="#ak"/><use transform="matrix(0.05,0,0,0.05,42.5,0)" xlink:href="#ag"/><use transform="matrix(0.05,0,0,0.05,52.54999999999999,0)" xlink:href="#ah"/></g><use transform="matrix(0.05,0,0,0.05,0,0)" xlink:href="#Q" id="u"/><path d="M115-194c55 1 70 41 70 98S169 2 115 4C84 4 66-9 55-30l1 105H24l-1-265h31l2 30c10-21 28-34 59-34zm-8 174c40 0 45-34 45-75s-6-73-45-74c-42 0-51 32-51 76 0 43 10 73 51 73" id="aB"/><g id="v"><use transform="matrix(0.05,0,0,0.05,0,0)" xlink:href="#aw"/><use transform="matrix(0.05,0,0,0.05,10,0)" xlink:href="#at"/><use transform="matrix(0.05,0,0,0.05,20,0)" xlink:href="#as"/><use transform="matrix(0.05,0,0,0.05,29,0)" xlink:href="#ax"/><use transform="matrix(0.05,0,0,0.05,38,0)" xlink:href="#ap"/><use transform="matrix(0.05,0,0,0.05,48,0)" xlink:href="#aB"/></g><path d="M64 0c3-98 48-159 88-221H18v-27h164v26C143-157 98-101 97 0H64" id="aC"/><use transform="matrix(0.05,0,0,0.05,0,0)" xlink:href="#aC" id="w"/><path d="M134-131c28 9 52 24 51 62-1 50-34 73-85 73S17-19 16-69c0-36 21-54 49-61-75-25-45-126 34-121 46 3 78 18 79 63 0 33-17 51-44 57zm-34-11c31 1 46-15 46-44 0-28-17-43-47-42-29 0-46 13-45 42 1 28 16 44 46 44zm1 122c35 0 51-18 51-52 0-30-18-46-53-46-33 0-51 17-51 47 0 34 19 51 53 51" id="aD"/><use transform="matrix(0.05,0,0,0.05,0,0)" xlink:href="#aD" id="x"/><path d="M233-177c-1 41-23 64-60 70L243 0h-38l-65-103H63V0H30v-248c88 3 205-21 203 71zM63-129c60-2 137 13 137-47 0-61-80-42-137-45v92" id="aE"/><path d="M30-248c118-7 216 8 213 122C240-48 200 0 122 0H30v-248zM63-27c89 8 146-16 146-99s-60-101-146-95v194" id="aF"/><g id="y"><use transform="matrix(0.05,0,0,0.05,0,0)" xlink:href="#aE"/><use transform="matrix(0.05,0,0,0.05,12.950000000000001,0)" xlink:href="#aF"/><use transform="matrix(0.05,0,0,0.05,25.900000000000002,0)" xlink:href="#R"/></g><path d="M99-251c64 0 84 50 84 122C183-37 130 33 47-8c-14-7-20-23-25-40l30-5c6 39 69 39 84 7 9-19 16-44 16-74-10 22-31 35-62 35-49 0-73-33-73-83 0-54 28-83 82-83zm-1 141c31-1 51-18 51-49 0-36-14-67-51-67-34 0-49 23-49 58 0 34 15 58 49 58" id="aG"/><use transform="matrix(0.05,0,0,0.05,0,0)" xlink:href="#aG" id="z"/><path d="M30 0v-248h187v28H63v79h144v27H63v87h162V0H30" id="aH"/><path d="M141 0L90-78 38 0H4l68-98-65-92h35l48 74 47-74h35l-64 92 68 98h-35" id="aI"/><g id="A"><use transform="matrix(0.05,0,0,0.05,0,0)" xlink:href="#aH"/><use transform="matrix(0.05,0,0,0.05,12,0)" xlink:href="#aI"/><use transform="matrix(0.05,0,0,0.05,21,0)" xlink:href="#W"/><use transform="matrix(0.05,0,0,0.05,31,0)" xlink:href="#as"/><use transform="matrix(0.05,0,0,0.05,40,0)" xlink:href="#ap"/><use transform="matrix(0.05,0,0,0.05,50,0)" xlink:href="#ae"/><use transform="matrix(0.05,0,0,0.05,55,0)" xlink:href="#W"/></g><path d="M101-251c68 0 85 55 85 127S166 4 100 4C33 4 14-52 14-124c0-73 17-127 87-127zm-1 229c47 0 54-49 54-102s-4-102-53-102c-51 0-55 48-55 102 0 53 5 102 54 102" id="aJ"/><g id="B"><use transform="matrix(0.05,0,0,0.05,0,0)" xlink:href="#ar"/><use transform="matrix(0.05,0,0,0.05,10,0)" xlink:href="#aJ"/></g><g id="C"><use transform="matrix(0.05,0,0,0.05,0,0)" xlink:href="#ar"/><use transform="matrix(0.05,0,0,0.05,8.65,0)" xlink:href="#ar"/></g><g id="D"><use transform="matrix(0.05,0,0,0.05,0,0)" xlink:href="#S"/><use transform="matrix(0.05,0,0,0.05,5.95,0)" xlink:href="#W"/><use transform="matrix(0.05,0,0,0.05,15.949999999999998,0)" xlink:href="#as"/><use transform="matrix(0.05,0,0,0.05,24.95,0)" xlink:href="#T"/><use transform="matrix(0.05,0,0,0.05,34.95,0)" xlink:href="#S"/><use transform="matrix(0.05,0,0,0.05,40.900000000000006,0)" xlink:href="#Z"/><use transform="matrix(0.05,0,0,0.05,50.900000000000006,0)" xlink:href="#V"/><use transform="matrix(0.05,0,0,0.05,59.900000000000006,0)" xlink:href="#W"/><use transform="matrix(0.05,0,0,0.05,69.9,0)" xlink:href="#ae"/></g><g id="E"><use transform="matrix(0.05,0,0,0.05,0,0)" xlink:href="#ar"/><use transform="matrix(0.05,0,0,0.05,10,0)" xlink:href="#Q"/></g><path d="M121-190v23H57V0H25v-190h96" id="aK"/><path d="M147-167H93C83-118 77-63 59-23h88v-144zM24-23c26-44 31-102 41-167h113v167h26v95h-29V0H32v72H4v-95h20" id="aL"/><g id="F"><use transform="matrix(0.05,0,0,0.05,0,0)" xlink:href="#aK"/><use transform="matrix(0.05,0,0,0.05,6.550000000000001,0)" xlink:href="#am"/><use transform="matrix(0.05,0,0,0.05,16.55,0)" xlink:href="#ag"/><use transform="matrix(0.05,0,0,0.05,26.6,0)" xlink:href="#aL"/></g><path d="M170-56C169 10 92 0 25 0v-190h32v80c58-2 114-1 113 54zm-34 0c0-38-42-32-79-32v66c38 0 79 5 79-34zm66 56v-190h32V0h-32" id="aM"/><g id="G"><use transform="matrix(0.05,0,0,0.05,0,0)" xlink:href="#aL"/><use transform="matrix(0.05,0,0,0.05,10.5,0)" xlink:href="#L"/><use transform="matrix(0.05,0,0,0.05,20.5,0)" xlink:href="#I"/><use transform="matrix(0.05,0,0,0.05,30.399999999999995,0)" xlink:href="#I"/><use transform="matrix(0.05,0,0,0.05,40.3,0)" xlink:href="#aM"/><use transform="matrix(0.05,0,0,0.05,53.19999999999999,0)" xlink:href="#an"/><use transform="matrix(0.05,0,0,0.05,65.55,0)" xlink:href="#ag"/></g></defs></g></svg>